<svg xmlns="http://www.w3.org/2000/svg" xml:space="preserve" viewBox="0 0 120 40"><path d="M7 7.1c0-.2-.2-.3-.4-.5-.1.3 0 .4 0 .6.2.1.4.1.4-.1zM2.1 16.4c.2.1.4 0 .5-.2-.2-.1-.3 0-.5.2zM9.7 8.3c.2-.5-.4-.9-.6-.2.1.2.5.3.6.2zM4.8 11.4c.1-.4-.2-.8-.6-.6-.1.3.2.6.6.6zM12.9 5.1c.2 0 .2-.4.4-.6-.1 0-.1-.1-.2-.1-.2 0-.6.6-.2.7zM96.9 6.8c-.1-.1-.4-.2-.5-.1-.3.5.6.6.5.1zM90.7 2.1c.7 0 .5-1.3.2-1.5-.3-.2-.6-.2-.8.1-.4.6 0 1.1.6 1.4zM94.5 11.3c-.2-.1-.4-.1-.5.2.2 0 .4 0 .5-.2zM87.8 17.9v.1h.2s-.1 0-.2-.1zM79.1 15.2c-.4.4-.9.3-1.2.9.4-.1.8-.5 1.2-.7v-.2zM97 4c-.3-.2-.6-.2-.7.1-.2.5.9.7.7-.1zM79.2 15.2c.2 0 .3-.2.4-.3-.1 0-.2.2-.4.3zM79.3 17.5c-.7-.7-1.9-.5-2 .7.1.2.2.4.3.7.4.2.7.4 1.1.3.2-.3.6-.3.9-.5-.2-.4-.2-.9-.3-1.2zM79.8 6.7c0 .2.5.6.5.6-.1-.2-.3-.4-.5-.6zM82.1 6.1c0-.1-.1-.2-.2-.1.1 0 .2.2.2.1zM88.6 4.8c-.1 0 0-.1-.1-.1-.3.2-.5.6-.7 1 .3-.2.5-.7.8-.9zM89.5 17.1c0-.3-.4-.4-.6-.6.2.2.3.4.6.6zM79.7 6.6c-.1-.3-.2-.5-.5-.7.1.4.3.6.5.7zM89.8 1.6c.1.3 0 .7.2.9 0-.3 0-.6-.2-.9zM76.8 10.5c.1-.1 0-.1.3-.1.1-.1 0-.2 0-.3-.2-.1-.3-.1-.3.1-.1.2.1.2 0 .3zM81.4 1.2c.8-.5-.6-1-.3-.1l.3.1zM77.1 14c0 .1-.2.1-.2.2.1.1.3-.2.2-.2zM79.7 18.7c0-.1.3-.2.1-.3.1.2-.2.2-.1.3zM89.6 12.1c.4 0 .9.2 1.2.2-.4-.2-.9-.3-1.2-.2zM77.2 13.7c.2.2.8-.2.8-.2-.2.1-.5.1-.8.2zM95.3 34.9c-.3.3-.7.3-.9.7.3-.1.6-.4.9-.5v-.2zM95.4 36.6c-.6-.5-1.4-.3-1.5.5.1.2.2.3.2.5.3.2.5.3.8.3.2-.3.4-.2.7-.4-.1-.2-.1-.6-.2-.9zM93.1 32.6c-.1.1-.1.2 0 .3 0-.1.1-.3 0-.3zM104 25c.5 0 .4-1 .2-1.1-.2-.1-.5-.1-.6.1-.3.3.1.8.4 1zM103.4 24.6c0 .2 0 .5.2.7 0-.2-.1-.5-.2-.7zM95.8 37.4c0 .1-.2.1-.1.2.1-.1.3-.1.1-.2zM103.2 37.8c-.1.5.9.3.5-.2-.3-.1-.5 0-.5.2zM102 38c.1.1.2.1.3.1l.1-.2c-.2-.2-.4-.2-.4.1zM102.7 35.9c.1.2.2.3.4.4.1-.1-.2-.2-.4-.4zM103.2 32.6c.3 0 .7.2.9.1-.2-.1-.6-.2-.9-.1zM95.4 27.9c0 .2.1.4.3.5 0-.2-.1-.3-.3-.5zM93.7 34c0 .1-.1 0-.1.2.1 0 .2-.2.1-.2zM93.7 31.3v-.2c-.1-.1-.2 0-.2.1s.1.1.1.2c0-.1-.1-.1.1-.1z"/><path d="M103.3 34.4c.3-.4-.9-.7-.2-1.3l-.1-.1c-.2-.1-.4 0-.6-.1 0-.1.1-.1.1-.2-.1 0-.2 0-.2-.2.1-.1.3.1.4-.1-.4-.1-.9-.2-.7-.7.6-.1 1-.5 1.6-.6.3-.1.6-.1.7-.4-.2-.6-.7 0-1.1-.2-.5 0-.8.4-1.2.4.1 0 .1-.2 0-.3v-.8h.3c0-.2.4-.4.1-.6-.1 0-.1.2-.3.2 0-.5.3-.9.4-1.4-.2-.3-.4-.2-.5 0v-.4c.2-.1.4-.5.6-.7 0 0 0-.1-.1-.1-.2.2-.3.5-.5.7V14.2c0-2 0-3.1.2-4.2H96c.2 1.1.2 2.3.2 4.2V19h-5.9c0-.1 0-.3-.1-.4-.4-.2-.7 0-.7.3v.2h-1.1V19c-.1-.2-.4-.2-.5.1h-1.4v-4.4c.3.1.3.4.5.6.1 0 .2 0 .2-.1.3.2.4.4.7.6 0-.2-.1-.5-.4-.5.1 0 .1.2 0 .1s-.6-.4-.3-.5c.2 0 .1.4.3.3-.1-.1-.1-.2-.1-.3.1-.1.4 0 .6.1.2-.7 1.3.1 1.6-.3.3-.6-1.2-1-.3-1.7-.1 0-.1-.1-.1-.2-.3-.2-.5 0-.8-.2 0-.1.1-.1.1-.2-.2 0-.3 0-.3-.2.1-.1.4.1.5-.1-.6-.1-1.2-.2-.9-.9.8-.1 1.4-.6 2.1-.8.4-.1.7-.1.9-.5-.2-.7-.9 0-1.5-.3-.6 0-1 .5-1.6.5.1-.1.2-.3 0-.3s-.1.4-.2.3c-.2-.1 0-.4 0-.5 0-.3-.2-.5.1-.8h.4c0-.3.5-.6.1-.7-.1 0-.2.3-.3.2 0-.7.4-1.2.5-1.9-.4-.7-.8.3-1.2.4l.2-.4c-.3 0-.3.7-.6.6 0-.3.1-.7-.3-.9-.3.3 0 .7-.1 1 .5 0-.3.5-.6.2-.1-.1 0-.3-.2-.3-.2.3-.2 1-.7.6-.6-1.3-1-2.6-.7-4.3-.3-.4.5-2.1-.2-2.4-.5-.3-.6.3-.6.6 0 .7-.1 1.8 0 2.3.1 1.4.4 2.6-.3 3.7-.5.5-1.2-.2-1.5-.6-.3-.3-.4-.5-.3-.9-.4-.7-.5-1.7-1.2-2 .1 1.3 1.2 2.1 1.6 3.3-.1.3-.1.7-.3.9-.3-.3-.6-.5-.8-.8.1.4.6.7.8 1.1-1.1.3-2.5-.6-3.2-1.3 0-.1.2.1.2 0-.2-.2-.4.1-.7 0 0 0 0 .1-.1.1 0 .8 1.5 1 1.8 1.6-.1 0-.2-.1-.3-.1 0 .3-.1.3 0 .6-.6.1-1.1.5-1.7.6.1.1.4 0 .4.2-.3.3-.9.4-1.1.6-.4 0-.9 0-1.3.1.7.1 1.8.1 2.4-.2.2.2.5.1.5.4l-.2-.2c-.1.1 0 .2-.1.2-.3-.1-.2.2-.3-.1-.2.2.3.4.4.6-.2 0-.4-.1-.5.1.4.1 1.2.1 1.8.1.4 0 1 0 .9.5-.1.4-.5.2-.7.5.1.2.4-.2.5 0-.3.5-.9.8-1.4.9-.7.2-1.6.4-1.8 1.2-.3-.6-.6-1.2-1.1-1.8-.3-.4-.6-.8-1-1.1.5.2 1.1.3 1.7.3.1-.5-.1-.8-.5-1.1-.2-.2-.4-.2-.6-.4-.2-.1-.3-.3-.5-.3-.4-.1-.6-.2-.9-.2-.3-.3-1.1-.2-1.5-.3 0 0 0-.1-.1-.1-.4-.1-.9 0-1.4 0-1.2-.4-2.4-.5-3.8-.5-3.3 0-6.2 1.1-8.2 3-.4.4-.7.7-1 1.2-.2.2-.4.3-.7.4v.3c-.3 0-.1.4-.4.4-.1-.1.1-.3 0-.3-.1.2-.3.3-.4.6l.3.6c-.1.1-.1.3-.2.4-.1-.1-.1-.3-.2-.5-.1 0-.1.1-.2 0 0-.2.1-.4.2-.5-.1 0-.1-.1-.1-.1-.1.1-.3.3-.3.5.1.3.4.5.4.8h.2c-.7 1.7-1 3.6-1 5.7v.5h-.1c.1 0 .1.2 0 .1 0 .2.1.2.1.4 0 .1-.1 0-.2.1.1.4-.2.3-.4.2 0 .1 0 .1-.1.1-.2-.2-.6-.3-.9-.4-.1.2.2.2.2.4.1.3 0 .7-.1.9.3.2.6.7.4 1.2.3.3.3.6.5 1 .2.6.6.9.3 1.7-.4.3-.9 0-1.2-.3v.2c.3.3.4.8.8 1.1 0 .2.2.3.2.5.2.1.3.2.2.4.7.5 1.1 1.4 1.9 1.7.3.6 1.2.7 1.8 1.1h.2c0 .1.1.1.1.2.3 0 .4.1.6.2.8.3 2.1.3 2.8.4h.6c1.2.4 2.6.5 4 .5 3.5 0 6.2-1.1 8-3.1.3-.4.6-.7.8-1.1.1-.1.2-.1.3-.1 0-.1.1-.1.1-.2.2 0 .4-.2.4-.4-.2 0-.2.1-.3.2-.1 0-.1.1-.2.1.6-1 .9-2.1 1.3-3.7h-.2c.1-.3.2-.7.3-1.1h-.1c-.1.4-.3.7-.5 1.1l-1.3-.2c.1-.1.1-.2.2-.2.3-.2 0-.4.1-.6-.1 0-.1 0-.2-.1 0 .2-.2 0-.3.1v.2c-.2.1-.2.3-.2.5l-3.4-.2c-.2 1.2-.4 1.8-.9 2.5-.8 1.1-2.2 1.8-3.7 1.8-3.5 0-5.7-2.8-5.7-7.5s2-7.5 5.5-7.5c2.5 0 4 1.3 4.5 3.9l5.9-1.2c-.2-.7-.3-1.3-.5-1.8.2.1.3.2.5.2.4-.3 1-.5 1.5-.8.4-.2.7-.7 1.1-.5-.1.1-.3.2-.4.4.4.1.6-.5 1-.6v.3c-.2.1-.4.2-.5.4.2 0 .4-.1.5-.3v3.6c0-.1 0-.3-.1-.4 0 0 0-.1.1-.1-.1 0-.1-.1-.2-.1-.4.2-.4.9-.7 1.2l-.1.1c-.1-.2-.4-.3-.5-.1-.1.1 0 .3.2.4-.1.2-.2.3-.3.5.2-.1.4-.3.5-.4l.1-.1c.2-.3.5-.7.7-1.1.1.1.1.3.1.5h.2v.1c-.1.4-.1.5 0 .8h.1v10c0 2 0 3.1-.2 4.2h6.2c-.2-1.3-.2-2.4-.2-4.2v-5.6h9.6v2.5c-.1-.1-.2-.1-.3-.2 0 .3.1.6.3.9v2.4c-.7-.1-1.3-.6-1.7-1 0-.1.1.1.2 0-.2-.2-.3 0-.5 0 0 0 0 .1-.1.1 0 .6 1.1.7 1.4 1.2-.1 0-.2-.1-.2 0-.1.2-.1.3-.1.5-.5.1-.8.4-1.3.5 0 .1.3 0 .3.2-.2.2-.7.3-.8.5-.3 0-.7 0-1 .1.5.1 1.4.1 1.8-.1.2.1.4.1.4.3-.1 0-.1-.1-.2-.1-.1.1 0 .2-.1.2-.2-.1-.2.1-.2-.1-.1.2.2.3.3.5-.1 0-.3-.1-.4.1.3.1.9.1 1.4.1.2 0 .5 0 .6.1v.4c-.1.1-.3.1-.4.2.1.1.3-.1.4 0-.2.4-.6.6-1 .7-.6.2-1.3.3-1.4 1 .1.1.3.2.5.2.3-.2.8-.4 1.2-.6.3-.2.5-.5.9-.4-.1.1-.2.1-.3.3.3.1.6-.5.9-.5 0 .3-.4.3-.6.6.4 0 .5-.5.9-.5.1.3.2.5.3.8-.2.4-.4.8-.6 1.3.3-.1.3-.9.7-.9-.1.3-.2.6.1.7.2 0 .3-.3.4-.5h.5c.1-.1.3-.4.5-.3.1-.2.1-.3.2-.3.3.1.3.4.4.7.4.4.5.9.7 1.3 0 .3 0 .6.2.8.1-.6-.1-1 .2-1.4 0-.1-.2-.1-.3-.2.1-.5-.2-1.6.4-1.5.4 0 .3.3.6.5.1 0 .1 0 .2-.1.2.1.3.3.6.4 0-.1-.1-.4-.3-.4 0 0 .1.1 0 .1-.1-.1-.5-.3-.2-.4.1 0 .1.3.2.2-.1-.1-.1-.1-.1-.2.1-.1.3 0 .4 0 0-.5.8.2 1-.2zm-48.2-5.3c.1-.3.4-.3.6-.4.2-.1.2-.4.4-.5.1 0 .3-.1.4-.1.1.1.3.1.4.2.2.4.4.9.6 1.3-.6.1-2 0-2.4-.5zm23.1-17.2c0-.2 0-.4.3-.5.2.3.7.1.9.3-.3.3-.8.1-1.2.2zm.7-.9c.1-.1.2-.1.4 0-.2 0-.3.1-.4 0zm1-.1c-.2.1-.6 0-.9 0v-.3c.3-.1.9-.3 1.1.1-.1.1-.3.1-.5.1 0 0 .2 0 .3.1zm0-.7c-.1-.2-.1-.5-.4-.6.2-.7 1.1-.3.8.3 0 .1.2.2.2.3-.1.2-.5-.1-.6 0zm14.7 22.2c0-.1 0-.3.2-.4.1.3.5.1.7.2-.2.3-.6.1-.9.2zm.5-.6c.1-.1.2-.1.3 0h-.3zm.7-.1c-.2.1-.4 0-.7 0v-.3c.2-.1.7-.2.8.1-.1.1-.2.1-.4.1.1 0 .3 0 .3.1zm0-.6c-.1-.2-.1-.4-.3-.5.2-.6.8-.2.6.3V31.2s-.2-.1-.3-.1z"/><path d="M93.9 33.8c.2.1.6-.2.6-.2-.3.1-.5.1-.6.2zM95.4 34.9c.1 0 .2-.1.3-.2-.2 0-.2.2-.3.2zM98.2 38.5c.1 0 .1.1.2.1s.2-.1.2-.3c-.1-.1-.5-.1-.4.2zM96.4 36.8c-.3.1-.3.7-.5.9-.1.1-.2.1-.3.2-.1.2-.2.4-.3.5.5-.3.8-1 1.2-1.6 0 .1 0 0-.1 0zM102 37.1s0-.1-.1-.1v.1h.1zM104.1 39.3c0 .1 0 .2.2.2.1 0 .2-.1.2-.2-.1-.2-.3-.2-.4 0zM95.8 28.4c0 .2.4.5.4.5-.1-.1-.2-.3-.4-.5zM100.4 38.1c-.1.1 0 .2.1.2 0 0 .1-.1.1-.2-.1 0-.1.1-.2 0zM51.7 4.9c.1-.2-.2-.3-.2-.1.1 0 .1.1.2.1zM55.1 6.8c.2.1.4.1.5-.1-.1-.1-.4-.1-.5.1.1 0 .1 0 0 0zM44.4 14.5c.1 0 .2.1.2.2s-.1.1-.1.2c.1 0 .2-.1.4 0 .1.1.1.2.3.3 0-.1.1-.1.2-.1.1.1 0 .2.1.2s.1-.3.2-.2c.1 0 0 .1.1.2.1-.1.1-.1.1-.2.2 0 .1.2.2.2 0-.1-.1-.1 0-.2.2-.1.1-.4.3-.5.1 0 .4.2.6.2-.5 0-.7-.6-.3-.8h-.2c-.1-.1-.1-.2-.1-.3h-.2c-.1-.1-.1-.1-.1-.2-.2 0-.2-.2-.3-.3-.1 0-.1.1-.2.1-.2-.2-.3.1-.5-.1-.2.2-.4.3-.7.2-.1.1.1.2.1.3 0 .2-.2.2-.2.3v.6c.1-.2.1-.1.1-.1zM43 14.6c.3.2.4-.2.5-.3v-.1c-.1-.1-.2 0-.2 0 0-.2-.3-.1-.3 0-.1.1.1.2 0 .4zM47.7 7.8c-.1-.1-.2-.2-.3-.2 0 .1.2.2.3.2zM55.6 12.8c0 .1.2.1.3 0 0-.1-.2-.1-.3 0zM51.1 6.1c.1.1.2.1.1.2.1 0 .2.1.3.2.2 0 .3.1.4.2.1-.2.3-.2.5-.2 0-.1.1-.2.2-.2.1-.2 0-.4.1-.5-.2-.1-.2-.4-.3-.5 0 0-.1.1-.1 0-.1 0 0-.1-.1-.1-.1.1-.2.1-.3 0-.1.1-.3.2-.5.2.1.1-.1.3-.2.3-.1.2 0 .2-.1.4zM55.6 8.1v.1c0 .1-.1 0-.2.1.1.1.1.3 0 .4.1.1.1.3.2.4-.2 0-.4 0-.5.3.4.4.7-.4 1.2-.1.2-.2.5-.3.5-.7 0 0 .1 0 .2-.1 0 0-.2 0-.2-.1s.1-.1.1-.2c-.1 0-.1-.2-.3-.3-.1-.1-.3-.1-.3-.2-.1.1-.2.1-.3 0-.1.2-.3.1-.4.4 0-.1 0-.1 0 0z"/><path d="M54.5 11c.1-.1.2 0 .3.1.2-.1.6-.2.6-.5 0-.1.1-.1.2-.2-.1-.2 0-.5-.3-.6v-.1c-.1-.1-.1-.1-.2 0-.1-.1-.1-.1-.2-.1-.1.1-.2.1-.3 0-.1.2-.4.2-.5.4 0 .1 0 .3-.1.4-.2-.5-1.2-.4-1.6-.7.1-.2.3-.3.4-.4.1 0 .2-.1.2-.2-.3 0-.5.4-.8.4-.1-.2-.2-.3-.3-.5.1-.3 0-.5 0-.8 0-.1 0-.2-.1-.3h-.1c-.1.1 0 .2-.1.3-.3 0-.6-.3-.8-.5-.1.1 0 .2-.1.3-.3 0-.4-.2-.6-.2-.1 0-.1-.2-.3-.3-.1-.2 0-.4-.2-.6-.1.1 0 .2 0 .3 0 .1 0 .4.1.5.1.2.2.2.1.4s-.3.1-.5.1c-.4.6-1 .1-1.4-.2.2.3.6.5.8.7l-.6.3c-.1 0-.1-.1-.2-.2-.1.1 0 .2.1.2-.4 0-.4-.4-.8-.5v-.1c0-.1.1-.1.1-.1-.1-.1-.1-.2 0-.4-.2 0-.3-.2-.3-.4-.1-.1-.1.1-.2 0 0-.2-.1-.1-.3-.3l-.1.1c-.2-.1-.3 0-.4 0-.1-.1-.2-.3-.4-.3 0 .1.2.1.2.2-.2.2-.3.4-.5.5.1.1.1.2 0 .4.1.2.2.4.2.5h.2c.1.1.1.1.1.3.3 0 .5.1.7.1l.1-.1h.2c.1 0 0-.1.1-.1.3.2.8.3.9.6 0 .3-.1.5-.3.7 0 0-.1-.1-.2-.1s0-.1-.1-.2c-.4-.1-.8 0-1 .3 0 .1 0 .3-.1.4 0 .3.2.4.3.7.1-.1.2 0 .3.1h.1c.1.8.1 1.7.1 3.2v.2h-.1.1v9.6c0 3.6-1.6 5.3-5.1 5.3-3.3 0-5-1.7-5-5.3v-9.8c0-2.1 0-3.3.2-4.3h-6.2c.2 1 .2 2.3.2 4.1h-.1v.1h-.1s.1 0 0 .1c.1.1 0 .2 0 .2v.4c0 .1.1.1.1.1v.1c0 .1.1.1.1.2l.1.1v4.3H31v.1h-.1v.1l-.1.1h-.2s0 .1-.1.1c0 0-.1 0 0 0 0 0-.1 0 0 0v.1h.2c-.1 0-.1.1-.1.1v.1c.1 0 .1.1.1.1v.6s.1.1 0 .1v.2h.1v.1s0 .1 0 0c0 0-.1 0 0 0V22l-.1.1v.4c0 .1 0 .1.1.1v.1c0 .1.1.1.1.1h-.1l.1.1h-.1c0 .1.1.1.1.2.1 0 .1.1.1.1v.1s0 .1.1.1h.1v.1c0 .1 0 .1-.1.1H31s.1 0 0 0c0 0 0 .1.1.1l-.1.1c.1 0 .1.1 0 .2v.1c0 .1.1.1.1.2s0 .1-.1.2h-.1v.2h.1v.1h.1-.1.1v.1h.1s-.1 0 0 0v.1c0 .1.1.1 0 .2v.1h.1c.1 0 0 .1.1.1v.1h-.2s-.1 0 0 .1c.1 0 0 .1 0 .1v.2h.1c.1 0 .1.2.2.2h.2-.1v.1s.1 0 0 .1v.1h-.1v.1h.1l.1.1s0 .1.1.1c0 0 .1 0 0 .1.1 0 .2.1.3.1v.2s0 .1.1.1h-.1c0 .1.2.2.3.2 0 0 0 .1.1 0v.1s.1.1 0 .1l.1.1s.1 0 .2.1v.1c0 .1.1.1.1.2 0 0 .1 0 .1.1h.1c0 .1-.1.1 0 .2 0 0 .1 0 .1.1.1.1 0 .2-.1.2 0 .1.2.1.1.2v.1s.1 0 .1.1h.7c1.7 1.6 4.5 2.5 7.8 2.5 6.9 0 10.8-3.7 10.8-10.2V10c.2.2.4.4.8.4.4-.6-.8-.8-.7-1.3.1-.3.3-.1.5-.1 0-.2-.3-.2-.3-.3.1-.2.2-.1.4-.2 0-.2.2-.2.4-.3 0-.1-.2-.2-.2-.3.2-.1.5-.4.7-.1.2 2.9.2 3 .3 3.2zM31 14.5s.1 0 0 0zm.1 0zm0 6.4c0-.1-.1-.1 0 0 0-.1 0-.1 0 0 0-.1 0 0 0 0zm0 5.6c.1 0 .1 0 0 0 .1 0 0 0 0 0zm0 .4c0-.1 0-.1 0 0 .1 0 .1-.1 0 0 .1-.1.1-.1 0 0 .1-.1.1-.1 0 0zm.1-12.4zm.1 14c-.1-.1-.1-.1 0 0-.1-.1-.1-.1 0 0-.1-.1 0-.1 0 0 0-.1 0-.1 0 0zm0 0c0 .1 0 0 0 0zm.1.1zm0 0s-.1 0 0 0c-.1 0 0 0 0 0zm0 0zm.1.2c-.1 0 0-.1 0 0 0-.1 0-.1 0 0zm0 .1c0-.1 0-.1 0 0 0-.1 0 0 0 0 0-.1 0-.1 0 0 .1-.1.1 0 0 0zm.8 1.2zM112.6 8.3c.2 0 .2-.1.3-.2.1-.1.5-.1.4-.3-.1-.2-.7-.3-1.2-.4-.7 0-1 .2-1.7.1-.2.1-.6 0-.7.1 0 0 .1 0 0 .1s-.5 0-.7 0c-.5 0-.7.1-1.1.1-.1.1 0 .1-.1.2-.2.2-.7.3-1.1.4-.1.3-.6.4-.9.5 0 0 .1 0 0 .1-.1 0-.2 0-.2.1-.3 0-.3.1-.3.2-.3.1-.2.3-.3.4.2.1.3.2.2.3.1.1.3.2.4.3.2 1.1.2 2 .2 4v15.3c0 1.9 0 3.1-.2 4.2h2.6c.1 0 .2.1.2.1h-.1c.2 0 .2.1.3.1h.8c.1 0 .1.1.3.1.1 0 .1-.1 0-.1h.2l.1.1c.1-.1.2-.1.4-.1.1 0 .1.1.2.1s-.2-.1-.1-.1h.1c.2 0 0 .1.2.1s0-.1 0-.1c.1 0 .1-.1.1-.1h1c-.1-1-.2-1.9-.2-3.2 0-.1.1-.1.1-.2s-.1-.2-.1-.3V22.2c0-.1.1-.2.1-.3.1-.5.1-.9 0-1.4.1-.2-.1-.5.1-.8-.2-.2 0-.6.1-.8.1-.2.3-.5.1-.7 0 0 .2 0 .2-.1-.1-.2 0-.3.1-.4.2-.5 0-1 .2-1.4-.2-.3-.6-.6-.5-.9.2-.3-.1-.7-.1-1.1-.1-.4.3-.8 0-1.1 0 0 .1 0 .1-.1 0-.5-.4-.9.3-1.2.3-.1.6-.1 1-.1.9 0 1.5.2 2.2.3.2.1.4.1.6.2h.1c.2-.3-.8-.3-1.3-.5-.4-.2-.4-.4-.6-.7.2 0 .2-.1.3-.1h.2c.2 0 .4-.1.7-.1.2 0 .5 0 .6-.1.1 0 .1-.1.2-.1.2 0 .4-.1.5-.1.6-.2 1-.6 1-1-.1-1.1-3.3-1.4-5.3-1.3zm-3.5.6c.1 0 .1-.1.3-.1-.1.1-.1.2-.3.1zm-.2-.3c.4 0 .7-.1 1.2-.1-.6.2-1.6.3-1.6.8-.1 0-.2.1-.3.1-.2 0-.2-.1-.4-.1 0-.4.8-.5 1.1-.7zm4.2 1.1h-.2c0-.1.2-.1.2 0-.1-.1-.4-.1-.4 0-.1 0-.3 0-.3-.1-.1.1-.3 0-.5 0 0-.3 1-.2 1.5-.1.1.1-.2.1-.3.2zm3.4.4c-.5.1-1.2.2-1.8 0 .3-.2.6-.4.6-.7-.1-.2-.4-.4-.8-.6-.3 0-.5-.1-.8-.2-.4-.1-.8 0-1.2-.1l.1-.1c1.6-.1 4.6.1 5 .8.2.4-.5.7-1.1.9z"/><path d="M113.3 17.6c.2 0 .3-.1.2-.1-.4-.2-.4 0-.2.1zM75.8 23.1c0-.1.1-.1.1-.2-.2-.1-.1.1-.1.2zM77 21.2c0-.3-.1-.6-.2-.9-.1.1-.1.2-.1.4-.4.2-.2.8-.2 1h.2v.2c.1-.2.1 0 .2 0 .2-.1-.2-.4.1-.7zM71.6 20.6c-.2.2-.2.7.2.6.4-.1.2-.8-.2-.6zM75.7 20.6c-.3 0-.2.4-.1.5h.1c0-.1.1-.1.1-.2s-.2 0-.1-.1c0 0 .1 0 0-.2zM75.9 21.2c0-.1.1 0 .1-.2l-.1.2zM76.2 22.3c.2 0 .3 0 .4-.2-.1 0-.1-.1-.2-.1-.1.1-.2.1-.2.3zM75.6 22.8c0 .1-.1.1-.1.2.1 0 .1.1.1.1 0-.1.1-.2 0-.3zM76.1 20.9v-.1s-.1-.1-.2-.1v.2h.2zM56.5 15.6c0-.1.1-.3.1-.3-.1.1-.2.1-.1.3zM76.6 19c-.3 0-.3-.3-.4-.4-.1.6.1.9.2 1.4.1.1.2 0 .3 0 .2-.4-.1-.6-.1-1zM79.8 16.1c-.1-.1-.1.1-.1.1 0 .1.1.1.1-.1 0 .1-.1.1 0 0-.1.1 0 .1 0 0zM55 22.5c0-.2.2.1.2-.1-.1-.1-.3 0-.4-.1 0 .1.1.2.2.2zM55.2 23c-.1-.1-.2-.1-.2-.2 0 0 .2 0 .1-.1-.2 0-.4-.2-.7-.2 0 .1 0 .1.1.2.1 0 .2-.1.3 0l-.1.3c.1 0 .5-.1.4.1.1 0 .1-.1.1-.1zM79.9 16.6c0-.1.1-.2 0-.3h-.1c.1.1 0 .2.1.3zM55.2 22.1c.1-.3-.1-.1-.1 0h.1zM80.2 16.6c0 .4-.1.7.2.9-.1-.2.1-.2 0-.4 0 0 0 .1-.1.1 0-.2-.1-.3-.1-.4 0-.1.1-.2 0-.2zM80.5 17.7s.1-.2 0-.2c0 .1-.1.2 0 .2zM75 22.6c-.2-.2 0-.3.1-.6-.5-.2-.4.7-.1.6zM79 27.3c0 .1-.1.2-.1.2.1 0 .1-.1.2-.1-.1.1 0-.1-.1-.1zM79.4 15.6c.1-.1 0-.3-.1-.4-.2.2-.2.5.1.4zM78.2 24c0 .2-.4.6-.1.9.2-.3.3-.7.1-.9zM78.3 28.4c.2 0 .5-.3.4-.5-.2.1-.4.2-.4.5zM80 25.1c-.1.1 0 .2 0 .3.2 0 .3-.3 0-.3z"/><path d="M76.8 24.1c.1-.6.3-1.2.1-1.8-.1 0 0 .2-.1.1s0-.1 0-.2c-.1 0-.1-.1-.2-.1.1.1 0 .5-.2.4 0 .2-.1 0-.1.2 0-.1-.2-.1 0-.3H76c0-.1 0-.1-.1 0 .1-.1 0-.1.1-.2.1 0 .1.1.2.1v-.4c.5 0 .1-.8 0-.2-.2 0-.2.2-.3.2 0 .2-.3.5-.5.4 0 .2-.1.4.1.5.1-.2.3 0 .3.1 0-.1.1-.1.1-.1 0-.1-.2 0-.2-.1.1.1.1-.1.2-.1s0 .1 0 .1c.1 0 .1-.1.2-.1 0 .2.2.3.3.4 0-.1-.1-.1-.1-.3h.2c0 .2-.1.3-.1.5.1.1.1.2.2.2 0 0 0 .3-.1.2v.1c-.2.1-.5 0-.3-.1.2 0 .2-.3.1-.4-.5-.2-.6 1.1-1 .6 0 .1-.1 0-.1 0l.1.1c-.1-.1 0 .1-.1 0 0-.1.1 0 .1-.1-.1 0-.1-.1-.2-.1 0 .1 0 .1-.1 0 0 .2-.2.2-.3.2v.1c.1 0 .2-.1.3 0 0-.1.2-.1.2-.1-.1.3-.5 0-.6.3 0-.1-.1 0-.1-.1-.1.2-.4.5-.2.7.1-.1.3-.2.4-.2v-.1c.2-.1.6-.1.6-.1-.1.1-.2.3 0 .3 0-.1.1-.3.2-.3 0 .2-.1.1-.1.3h.1c0-.1.1-.2 0-.4.1 0 .3-.3.5-.1-.2.1-.1.3 0 .3s.1-.1.2-.1v.1c0 .1-.1.1-.1.2 0 0 .1.1.2.1 0-.2.4-.1.6-.2-.2-.1-.2-.2-.3-.3-.1.1-.3.2-.4-.2.1-.1.2-.3.4-.3 0 .2 0 .2.1.4.2 0 .1-.1.4 0 0-.1.1-.2.1-.3-.5.3-.4.2-.4.2zM74.8 25.3h.2v-.1c-.1 0-.1-.1-.2-.1-.1.1-.1.2 0 .2zM53.3 21.6c.1 0 .1.1.1.1s.1 0 .1-.1-.2-.1-.2 0zM74.3 25.6c.1-.1 0-.3-.2-.3.1.1.2.1.2.3z"/><path d="M74.9 23.1c-.2-.1-.3.2-.2.3.2-.1.4-.2.4-.5-.1-.1-.2-.1-.3-.1.1-.2-.1-.2 0-.2-.1 0 0-.1-.1-.2-.1.1-.1.1-.2.1 0 .1-.2.2-.2.4.2-.1.5 0 .6.2zm-.2-.5v.1c-.1 0-.1-.1-.1 0-.1 0 .1 0 .1-.1zM53.5 20.3c0 .1-.1 0-.1.2.1 0 .2.1.2 0-.1 0 0-.2-.1-.2zM76.6 24.7s.1-.1.1-.2c-.2 0-.2.2-.1.2zM75.6 24.8c-.1.2 0 .2-.1.3 0 0 .1 0 .1.1-.1 0-.1.1-.2.1 0 .1.1.1.2.2 0-.1.1 0 .1-.2-.1-.1 0-.2.1-.3-.2 0 0-.2-.2-.2z"/><path d="M75.5 25c0-.1-.2-.2-.1-.3h-.2c0 .2-.1.2-.1.3.2 0 .4.1.4 0zM53.8 21.9v.1h.2c-.1 0-.1-.1-.2-.1zM31 20.9c-.1 0 0 .1 0 0 0 .1 0 0 0 0zM26.3 23c-.8-.7-1.6-1.1-3-1.4 1.2-.4 1.7-.7 2.3-1.3 1.1-1 1.7-2.4 1.6-4.1 0-3.1-1.8-5.1-4.9-5.8.2 0 .5-.1.8-.1.1-.5.2-.7.6-.9-.3-.3-.2-.8.1-1.2-.2-.1-.2.1-.4 0-.1-.6-1.1-.6-1.5-.8-.2.3-.5.5-.9.5.1.3-.1.6-.4.8.3.3.1.7.2 1.1.2 0 .4.2.5.3-.4 0-.8-.1-1.3-.1.2-.1.4-.1.4-.2-.1.1-.5.1-.5.2h-1.3c-.2-.4-.3-.9-1-1.1-.3 0-.4.2-.7-.1.1-.2.3-.4 0-.5-.3.4-.6 1-1.2.9-.1.2-.1.5-.3.4-.3-.3-.8-.6-1.1-.9-.2.2-.5.3-.9.2-.3-.3-.1-.8-.5-.9-.2 0-.3 0-.4.2 0 .3.3.5.3.8-.4.1-.5.7-1 .7-.7-.9-2-1.3-3-1.4-.3 1-1 .3-1.4.7-.2-.3-.3-1.4-.6-1 .3.2.5.9.3 1.2-.1.4-.4.3-.6.6-.4.4-.4 1-.6 1.5-.1.1-.3-.1-.4 0-.1.3.1.5 0 .8-.3.2-.7.5-1.1.6.1.2.2.4.2.7-.5.4-.5 1.3-.3 1.7-.1.1-.3.2-.3.4.3.3.6.5.5.9-.1.2-.4.1-.3.4.4.1 1 .4.5 1 .4 0 .9 0 .9.5-.1.1-.4.3-.4.4.3-.3.8 0 .9.3.2 0 .3-.2.6-.1.4.1.2.4.4.5.2.1.3-.1.6 0 .2.1 0 .4.3.4.1-.2.2-.5.5-.4v10.7c0 2 0 3-.2 4.2 1.2-.1 2.1-.1 4.2-.1H19.7c1 .5.8 1 .6 1.5 3.3-1.6 5.7-3.5 7.7-6.6.2-.5.2-1 .2-1.5 0-1.9-.7-3.5-1.9-4.6zm-12.2-6.7h.2c.2-.2.1-.2.1-.5.3 0 .5.1.8.1.1-.3.3-.2.4-.5-.2-.3-.7-.3-1.1-.3V15h4.6c1.6 0 2.5.8 2.5 2.2 0 1.4-.9 2.3-2.5 2.3h-5v-3.2zm5.3 13.1h-5.3v-5.3h5.2c1.8 0 2.9 1 2.9 2.6 0 1.7-1 2.7-2.8 2.7z"/></svg>