<?xml version="1.0" encoding="UTF-8"?><svg id="_レイヤー_2" xmlns="http://www.w3.org/2000/svg" viewBox="0 0 1430.02 481.89"><g id="_イラスト"><path d="m60.53,81.52c-.18-2.66-2.82-4.17-4.71-6.03-1.46,3-1.07,5.14-.97,7.42,2.74,1.34,4.69,1.01,5.68-1.39Z"/><path d="m0,195.9c2.84.66,4.88-.4,6.72-1.88-2.84-.66-4.88.4-6.72,1.88Z"/><path d="m94,96.27c2.57-6.08-4.93-11.43-6.86-2.49.62,2.49,4.79,4,6.86,2.49Z"/><path d="m32.69,134.41c1.4-5.41-2.95-9.67-7.76-7.13-.96,3.81,3.38,7.86,7.76,7.13Z"/><path d="m132.52,56.75c2.96.46,3.07-5.18,4.57-7.83-1.06-.35-1.55-.97-2.01-1.59-1.84.91-6.76,7.94-2.56,9.43Z"/><path d="m1170.38,77.4c-1.63-1.64-4.92-2.62-6.33-1.08-3.4,6.17,7.54,8.03,6.33,1.08Z"/><path d="m1093.92,20.28c8.7.48,6.5-15.91,2.5-18.65-3.48-2.38-7.44-2.18-9.47.84-4.64,6.88.59,13.7,6.98,17.82Z"/><path d="m1140.9,133.31c-2.87-1.36-4.83-.75-5.69,2.21,2.55.67,4.65.36,5.69-2.21Z"/><path d="m1059.09,215.46l-.59,1.62c1.18.6,2.07.61,2.55-.29-.67-.43-.76-1.14-1.97-1.32Z"/><path d="m950.92,181.67c-4.33,4.48-10.87,4.24-14.28,10.71,5.4-1.55,9.41-6.11,14.24-8.89.14-.66.65-1.5.05-1.81Z"/><path d="m1172.18,43.82c-3.45-3-7.15-2.15-8.19.69-2.33,6.31,10.29,8.28,8.19-.69Z"/><path d="m952.74,181.72c2.14.11,3.18-2.16,4.81-3.14-2.14-.11-3.18,2.16-4.81,3.14Z"/><path d="m953.63,209.55c-9.22-8.53-22.98-5.62-24.4,8.25,1.6,2.54,2.56,5.38,3.78,8.1,5.17,2.71,8.07,4.33,13.16,4.17,2.56-4.12,7.16-3.87,10.7-5.9-2-4.44-1.89-9.88-3.25-14.63Z"/><path d="m959.91,76.13c.46,2.85,5.88,7.92,6.34,7.8-2.08-2.62-3.78-5.41-6.34-7.8Z"/><path d="m988.63,69.45c-.43-1.02-2.16-2.98-3.24-1.18,1,.19,2.14,2.5,3.24,1.18Z"/><path d="m1068.7,52.69c-.68-.28-.49-.97-1.42-1.13-3.37,3.02-5.82,8.01-8.68,12.13,4.24-1.8,6.59-7.65,10.11-11Z"/><path d="m1080.1,204.75c-.31-3.3-5.15-4.47-7.27-6.92,1.15,2.9,3.58,5.2,7.27,6.92Z"/><path d="m958.83,75.74c-.68-3.27-2.9-5.82-5.6-8.15.02,3.58,2.36,6.07,5.6,8.15Z"/><path d="m1083.36,14c.79,3.82-.23,8.48,2.61,11.34.12-4.24-.36-8.2-2.61-11.34Z"/><path d="m922.47,123.66c1.78-.65.03-1.57,3.29-.64.62-1.64-.38-2.52-.44-3.83-1.94-.95-3.32-.72-4.02.98-.46,1.56,2.32,1.61,1.18,3.49Z"/><path d="m979.33,9.22c9.93-5.69-7.79-12.32-3.78-1.37l3.78,1.37Z"/><path d="m925.88,166.46c-.36,1.8-2.1.62-2.26,2.85,1.51,1.22,4.19-2.82,2.26-2.85Z"/><path d="m958.85,225.5c.14-1.49,3.82-2.81,1.37-3.78.1,1.93-2.69,2.41-1.37,3.78Z"/><path d="m1080.47,143.15c4.99.3,11.08,2.78,14.48,2.2-3.74-2.1-10.67-3.11-14.48-2.2Z"/><path d="m928.14,163.61c2.5,2.19,10.01-2.59,10.06-2.46-3.67.15-7.17.65-10.06,2.46Z"/><path d="m1150.63,425.48c-3.29,3.4-8.26,3.22-10.85,8.13,4.1-1.18,7.14-4.64,10.81-6.75.11-.5.49-1.14.04-1.38Z"/><path d="m1152.69,446.65c-7-6.48-17.45-4.26-18.53,6.27,1.21,1.93,1.95,4.08,2.87,6.15,3.93,2.06,6.13,3.29,9.99,3.17,1.94-3.13,5.44-2.94,8.13-4.48-1.52-3.38-1.44-7.5-2.47-11.11Z"/><path d="m1124.07,396.33c-1.2.73-.64,2.82.04,3.73.48-1.47,1.5-3.2-.04-3.73Z"/><path d="m1259.23,302.9c6.61.36,4.94-12.09,1.9-14.17-2.65-1.81-5.65-1.66-7.19.64-3.52,5.23.45,10.4,5.3,13.53Z"/><path d="m1251.22,298.14c.6,2.9-.18,6.44,1.98,8.61.09-3.22-.28-6.23-1.98-8.61Z"/><path d="m1157.69,455.9c.08,1.47-2.04,1.83-1.04,2.87.11-1.13,2.9-2.13,1.04-2.87Z"/><path d="m1248.26,460.94c-.62,6.06,11.25,3.94,6.56-2.72-3.54-1.63-6.27-.17-6.56,2.72Z"/><path d="m1233.57,463.03c1.08,1.14,2.6,1.33,3.84.93l.74-2.05c-1.26-1.92-4.12-2.45-4.59,1.12Z"/><path d="m1243.22,437.76c.87,2.2,2.72,3.95,5.52,5.25-.24-2.5-3.91-3.39-5.52-5.25Z"/><path d="m1249.02,396.22c3.79.23,8.42,2.11,11,1.67-2.84-1.59-8.1-2.37-11-1.67Z"/><path d="m1152.38,338.84c.01,2.72,1.79,4.61,4.25,6.19-.51-2.49-2.2-4.42-4.25-6.19Z"/><path d="m1131.61,413.93c-.27,1.36-1.6.47-1.71,2.16,1.14.93,3.18-2.14,1.71-2.16Z"/><path d="m1131.52,380.93c.47-1.24-.29-1.91-.34-2.91-1.47-.72-2.53-.55-3.06.75-.35,1.18,1.76,1.22.89,2.65,1.35-.49.03-1.2,2.5-.48Z"/><path d="m1250.33,419.45c3.17-5.35-10.91-9.07-2.88-16.36-.51-.44-.77-1-.78-1.68-2.9-1.6-4.5-.4-7.27-1.71.23-1.4,1.23-.99.74-2.05-1.85.02-2.77.25-2.57-1.86,1.2-1.31,4.02.84,4.99-.97-5.36-.74-11.1-2.27-8.06-8.5,7.33-.96,12.73-6.05,19.39-7.35,3.29-.64,6.85-1.31,8.28-4.89-2.16-6.91-8.53-.13-13.87-2.72-5.62.36-9.44,4.59-15.17,4.7.94-.48,1.69-2.79.22-3.17-.2-.04-.35-.01-.49.02-.05-2.98-.09-6.16-.11-9.57,1.13-.16,2.5.17,3.61-.03.33-2.54,4.6-5.29,1.15-7.01-1.27.2-1.58,2.44-3.09,2.12-.36-6.74,3.54-11.12,4.62-17.82-2.33-3.91-4.35-2.37-6.36-.26v-4.63c3.04-1.5,4.8-5.74,7.39-8.2-.52-.21-.38-.73-1.08-.86-2.46,2.2-4.27,5.77-6.33,8.81l-.43-164.35c-.07-24.75.61-37.84,2.69-52.35l-76.03.2c2.16,13.79,2.9,27.94,2.97,52.33l.16,58.7-72.8.19c.61-1.38.44-3.21-1.12-5.42-4.67-2.15-8.25-.23-8.64,3.58-.07.72.02,1.32.19,1.86l-13.72.04.22-.62c-1.54-2.35-4.88-3.06-5.84.63l-17.48.05-.14-54.15c3.6,1.49,3.15,4.77,6.7,7.04,1.14-.11,2.12-.57,2.94-1.38,3.33,2.18,4.66,5.3,9.09,6.97-.44-2.34-1.69-6.67-4.37-6.48.72.07,1.3,2.24-.05,1.82-1.77-1.54-7.85-4.92-3.1-6.62,2.09.39,1.22,4.48,3.73,3.19-1.24-.91-1.81-2.14-1.72-3.68,1.85-.84,4.59.22,7.07.74,2.92-9.01,15.78,1.75,19.19-4.03,4.17-7.05-14.37-11.94-3.79-21.55-.67-.58-1.01-1.32-1.03-2.21-3.82-2.11-5.92-.52-9.57-2.26.31-1.84,1.62-1.3.98-2.7-2.43.03-3.65.33-3.39-2.45,1.58-1.73,5.3,1.1,6.58-1.28-7.06-.98-14.62-2.99-10.61-11.19,9.65-1.26,16.77-7.96,25.52-9.68,4.33-.85,9.01-1.73,10.9-6.43-2.85-9.1-11.23-.17-18.26-3.58-7.4.48-12.43,6.04-19.98,6.19,1.24-.63,2.22-3.67.29-4.17-2.82-.56-1.29,4.41-2.11,4.12-3.03-1.47.1-4.39,0-6.72-.14-3.31-2.49-6.06,1.17-9.96,1.52-.27,3.39.22,4.91-.05.43-3.34,6.05-6.97,1.52-9.23-1.67.26-2.08,3.21-4.07,2.8-.47-8.88,4.66-14.65,6.08-23.47-5.36-8.99-9.44,3.88-14.48,4.52,1.01-2.77,1.58-2.19,3.04-5.01-3.87-.28-3.36,8.81-7.66,7.61-.17-4.1,1.14-8.9-3.34-10.99-3.27,3.85.5,8.39-1.22,11.78,6.78-.42-3.16,5.8-7.17,2.9-1.29-1.04.04-3.31-3-3.54-1.96,3.98-2.51,12.24-8.39,7.95-7.27-15.74-11.99-32.66-8.76-53.3-4.01-5.54,5.59-26.15-2.47-30.24-6.5-3.3-7.44,3.44-7.46,7.07-.04,8.41-.97,22.1-.58,28.52,1.01,16.73,5.1,31.66-3.76,45.7-6.63,6.61-14.28-2.3-18.71-7.41-3.67-4.23-4.87-6.17-3.34-11-8.43-5.49-8.78-17.11-18.17-20.66.68,16.28,14.64,26.35,20.19,40.34-1.31,3.46-1.48,8.75-4.12,11.34-3.19-3.59-7.54-6.64-10.26-10.45,1.26,5.39,8.02,8.21,9.82,13.35-13.81,3.65-30.87-7.67-39.18-16.68.15-1.61,2.41,1.31,2.55-.3-2.95-2.5-4.59.65-8.54-.05-.31.6-.46,1.57-1.13,1.42-.41,10.35,17.98,11.93,22.74,19.87-1.31-.56-2.57-1.03-3.44-.64-1.24,3.82-1.5,4.51-.93,7.61-7.66.87-13.04,6.64-20.57,7.81.74,1.52,4.89.47,5.01,3.04-3.75,3.38-10.61,4.53-13.11,7.46-5.28.54-11.28-.48-15.86,1.58,8.73,1.18,22.78,1.05,29.5-2.12,2.72,1.87,6.62,1.67,6.58,5.45-.85-.8-1.65-1.62-2.85-2.26-1.19,1.08.25,3.06-.98,2.7-3.44-1.26-2.89,1.9-3.98-.84-2.42,2.89,3.46,5.48,5.06,7.95-1.95.3-4.63-.96-5.84.93,4.99,1.1,14.61,1.14,22.68,1.52,4.65.21,12.43.35,11.1,6.48-1.01,4.67-5.98,2.56-8.88,5.94,1.34,2.34,4.65-2,5.99.34-3.31,6.36-10.51,9.31-17.03,11.54-8.81,3.01-19.58,5.27-22.2,14.77-3.56-7.91-7.97-14.96-13.79-22.37-3.69-4.92-7.75-9.4-12.08-13.53,6.58,2.13,13.22,3.39,21.26,3.53,1.74-6.73-1.85-9.55-6.03-13.77-2.17-2.19-4.65-2.76-7.41-4.48-2.31-1.43-3.92-3.51-6.22-4.25-4.95-1.59-7.76-2.92-10.7-2.5-3.79-3.12-13.38-2.71-17.96-3.48-.14-.02-.37-.94-1.04-1.07-5.44-1.01-11.17-.58-16.76.09-14.32-4.42-30.2-6.63-47.51-6.58-41.37.11-77.05,13.28-101.39,37.05-4.46,4.42-8.54,9.21-12.32,14.28-2.72,1.91-5.41,3.87-8.52,5.16-.6,1.63-.08,2.47-.33,3.85-3.31-.13-1.27,4.92-4.56,4.33-.69-1.36,1.51-3.18-.47-4-1.6,2.59-4.04,3.87-4.82,7.76,1.63,2.78,2.84,4.95,4.21,7.32-.74,1.59-1.48,3.18-2.17,4.81-.94-1.81-1.55-3.86-2.46-5.69-1.46-.12-1.68.84-2.87-.12.3-2.8,1.07-4.88,2.09-6.55-1.35.23-.84-.85-1.43-1.15-1.49,1.68-3.14,3.11-4.01,5.74,1,3.75,4.6,5.64,5.16,9.69l2.4.46c0,.14,0,.28.02.42-8.22,20.68-12.48,44.33-12.41,70.13,0,2.15.08,4.28.14,6.41-.31.17-.65.33-1.08.46.68.35,1.57,2.58-.32,1.68-.38,2.19,1.47,2.81,1.1,4.99-.25,1.07-1.62.39-2.24.87,1.65,4.62-2.44,4.23-4.56,2.16-.15,1.06.51,1.46-.72,1.6-3.01-3.07-7.36-4.24-10.69-4.67-.9,2.41,2.06,2.87,2.78,4.88,1.16,3.26.33,8.88-1.63,10.56,3.9,1.94,7.4,8.81,4.91,15.29,3.12,3.84,4.25,7.73,6.19,12.94,2.6,6.95,7.08,11.4,3.38,21.08-5.25,3.57-11.32.37-15.01-3.77-.45,1.29.43,1.62-.17,3.01,4.22,3.74,4.81,10.07,9.87,13.21-.45,3.05,2.92,4.21,2.06,6.49,2.12,1.11,3.35,2.78,2.78,4.88,8.09,6.54,13.13,17.14,23.75,20.68,4.06,6.99,15.09,9.01,21.69,14.19,1.16.54,1.54-.15,2.47.04.3.87,1.37,1.19,1.67,2.06,3.53-.34,4.73,1.78,7.74,2.8,10.39,3.55,25.62,4.13,34.25,4.89,2.68.24,5.29.32,7.85.32,15.27,4.48,31.99,6.78,49.88,6.73,42.79-.11,77.05-13.64,98.91-38.8,3.8-4.46,7.14-8.93,10.11-13.6.99-1.01,2.09-1.8,3.44-1.71.19-1.34,1.33-1.19,1.36-2.78,2.51,0,4.98-2.64,4.73-5.17-1.99-.19-3.04,1.07-3.84,2.73-.81.51-1.63.99-2.46,1.47,6.8-12.23,11.55-26.32,15.84-45.72l-1.97-.29c1.72-4.29,3.07-8.81,3.61-13.85l-1.2-.23c-1.83,4.68-3.99,8.99-5.68,13.6l-16.58-2.43c.77-1.24,1.61-2.05,2.66-1.92,3.17-2.02.31-4.88,1.38-7.12-1.45.45-1.72-.56-2.63-1.38-.16,2.29-3.04.36-4,1.4-.6,1.39.1,1.85.31,2.67-2.2.96-2.31,3.26-2.66,5.63l-46.83-6.86c-2.08,14.86-4.54,21.94-10.53,30.45-10.22,14.17-26.82,22.34-46.26,22.39-43.85.12-70.11-34.81-70.27-92.46-.15-58.35,24.86-92.37,68-92.48,30.41-.08,49.2,15.78,56,47.95l72.81-14.34c-1.93-8.65-4.1-15.95-6.79-22.57,1.89,1.2,4,2.02,6.55,2.3,5.18-3.77,12.6-5.82,18.8-9.67,4.88-3.03,8.74-8.64,13.99-6.53-1.85,1.49-4.06,2.18-5.4,4.76,4.42.95,7.95-5.86,12.7-7.91,0,1.13.01,2.26.02,3.43-2.25,1.41-5.31,2.26-6.38,5.55,2.66.08,4.57-1.44,6.38-3.17l.12,45.07c-.18-1.84-.5-3.58-1.32-4.97.26-.39.51-.78.77-1.16-1.06-.25-.97-1.04-1.96-1.33-4.54,1.91-5.02,10.64-8.59,15.22-.34.44-.8.8-1.28,1.13-1.11-2.61-4.86-3.97-6.59-1.14-.78,1.28-.04,4.3,2.13,5.51-1.24,2.11-2.06,4.26-3.29,5.89,2.32-1.37,4.4-3.28,6.33-5.49.11-.02.22-.03.33-.06.53-.55.88-1.12,1.1-1.67,3.06-3.9,5.78-8.53,8.57-13.02.65,1.81,1.49,3.77.97,6.76,1.85-.17,1.75-.27,2.84.3v1.34c-.18-.14-.38-.27-.6-.34-1.27,4.61-.72,6.32-.35,10.37.35.2.68.35.99.47v4.91c-.03.11-.05.26-.04.46.02,0,.03,0,.05.02l.31,118.92c.07,24.75-.61,37.85-2.69,52.35l76.03-.2c-2.17-15.91-2.91-29.35-2.97-52.33l-.18-68.6,119.17-.32.08,30.6c-.93-.85-2.01-1.56-3.33-2.05.17,4.18,1.51,7.81,3.35,11.21l.08,28.85c0,.51,0,.99,0,1.49-8.28-1.64-16.63-7.68-21.32-12.76.11-1.22,1.83.99,1.94-.23-2.24-1.9-3.49.49-6.49-.03-.24.46-.35,1.19-.86,1.08-.31,7.86,13.65,9.06,17.27,15.09-.99-.42-1.95-.78-2.61-.48-.94,2.9-1.14,3.43-.71,5.78-5.82.66-9.91,5.04-15.62,5.93.56,1.15,3.72.35,3.8,2.31-2.85,2.57-8.06,3.44-9.95,5.67-4.01.41-8.57-.37-12.04,1.2,6.63.9,17.3.8,22.41-1.61,2.07,1.42,5.03,1.26,5,4.14-.65-.61-1.25-1.23-2.16-1.71-.9.82.19,2.33-.75,2.05-2.61-.96-2.19,1.44-3.02-.63-1.84,2.19,2.62,4.16,3.84,6.04-1.48.23-3.52-.73-4.44.71,3.79.84,11.1.87,17.23,1.15,2.36.11,5.76.2,7.47,1.62-.14,1.81-.3,3.59-.47,5.34-1.51.89-3.79.68-5.32,2.47,1.02,1.78,3.53-1.52,4.55.26-2.51,4.83-7.98,7.07-12.93,8.77-7.15,2.44-16.01,4.23-17.18,12.79,1.79,1.49,3.8,2.51,6.41,2.8,3.93-2.86,9.57-4.42,14.28-7.35,3.71-2.3,6.64-6.57,10.62-4.96-1.4,1.13-3.09,1.66-4.1,3.62,3.95.85,6.95-6.47,11.63-6.45-.21,4.05-5.5,3.21-6.82,7.27,4.49.14,6.17-5.76,10.51-5.93.92,3.54,2.86,6.61,3.17,10.44-2.56,4.99-4.7,10.3-7.04,15.55,3.82-1.55,4.13-10.6,8.31-11.37-1.5,3.54-2.92,7.04.75,8.17,2.71.2,3.48-3.74,5-6.08,2.48-.6,4.26-.14,6.75.59,1.83-1.79,3.77-5.15,6.04-3.84,1.18-2.47.89-3.54,2.87-4.06,3.63,1.71,3.72,5.07,4.48,8.13,4.76,4.59,5.9,10.86,8.4,16.51-.23,3.97-.08,7.76,2.76,10.29,1.45-6.89-1.36-11.91,1.86-17.89-.5-1.24-2.42-1.83-3.1-2.98,1.58-6.05-2.83-19.88,5.47-18.9,5.08.6,3.92,3.78,7.16,5.85.87-.09,1.61-.44,2.24-1.05,2.53,1.66,3.54,4.02,6.9,5.29-.33-1.78-1.28-5.07-3.32-4.92.54.06.98,1.7-.04,1.38-1.34-1.17-5.96-3.74-2.35-5.03,1.59.3.92,3.4,2.83,2.42-.94-.69-1.38-1.63-1.3-2.8,1.4-.64,3.48.17,5.37.56,2.22-6.84,11.98,1.33,14.58-3.06Zm-595.79-66.38c1.25-3.37,4.95-3.48,7.28-5.55,2.02-1.79,2.8-4.43,5.29-5.93.9-.55,3.46-.71,4.48-1.74,1.48.82,3.35,1.85,5.28,2.39,2.38,5.46,5.03,10.67,7.95,15.62-8.56,2.45-24.88,1.22-30.28-4.79Zm285.66-212.58c-.5-2.03.61-4.78,3.43-6.09,2.26,4.14,8.23,1.58,10.8,3.92-3.26,3.9-9.61,1.19-14.24,2.16Zm8.1-10.51c1-1.06,2.49-1.06,4.37-.25-1.27.47-2.36,1.34-4.37.25Zm12.22-1.67c-2.77,1.76-7.2-.05-10.9-.29-.23-1.24.24-2.8.29-4.17,3.31-1.05,11.42-3.46,13.41,1.81-1.51,1.24-3.44,1.59-5.84.93-.37,1.22,2.21,1.06,3.05,1.72Zm.05-8.54c-1.07-2.94-1.74-6.06-5.06-7.95,2.73-9.25,13.05-3.3,10.07,4.27.42,1.6,2.22,2.55,2.8,4.08-1.54,2.15-6.01-1.99-7.81-.39Zm181.92,274.43c-.38-1.54.46-3.63,2.61-4.62,1.72,3.14,6.25,1.2,8.2,2.98-2.48,2.96-7.3.9-10.81,1.64Zm6.15-7.98c.76-.8,1.89-.81,3.32-.19-.97.36-1.79,1.02-3.32.19Zm9.28-1.27c-2.1,1.34-5.47-.04-8.28-.22-.17-.94.18-2.13.22-3.17,2.51-.8,8.67-2.63,10.18,1.38-1.15.94-2.62,1.21-4.44.71-.28.92,1.68.81,2.31,1.3Zm.03-6.49c-.81-2.23-1.32-4.6-3.84-6.04,2.07-7.03,9.92-2.5,7.65,3.24.1.36.29.67.52.97-.01.85-.03,1.68-.05,2.51-1.47-.33-3.34-1.51-4.27-.68Z"/><path d="m1133.32,411.76c1.9,1.66,7.61-1.97,7.64-1.87-2.79.11-5.44.49-7.64,1.87Z"/><path d="m1152.01,425.52c1.63.08,2.41-1.64,3.65-2.39-1.63-.08-2.41,1.64-3.65,2.39Z"/><path d="m1186.59,469.65c1.24.33.92,1.39,2.16,1.71,1.33-.31,2.6-.75,2.98-3.09-1.11-2.96-5.98-2.06-5.14,1.38Z"/><path d="m1165.07,448.36c-3.45,1.45-3.81,8.08-6.52,11.56-.84,1.08-2.44,1.54-3.24,2.54-1.66,2.07-2.36,4.45-3.61,6.11,6.23-3.67,10.15-12.29,14.87-19.2-.81-.19-.74-.79-1.49-1.01Z"/><path d="m1234.28,452.15c-.51-.33-.57-.87-1.49-1l-.45,1.23c.89.45,1.58.46,1.94-.22Z"/><path d="m1260.2,479.21c.28,1.12.39,2.32,2.28,2.68,1.1-.32,2.04-.98,2.42-2.84-1.14-1.85-3.72-2.2-4.7.15Z"/><path d="m1157.46,345.32c.35,2.16,4.47,6.02,4.81,5.93-1.58-1.99-2.87-4.11-4.81-5.93Z"/><path d="m1213.92,464.72c-.66,1.21-.31,1.96,1.04,2.24.52-.35.94-.9,1.16-1.9-1.04-.76-1.27.19-2.2-.33Z"/><path d="m612.29,53.97c1.3-2.09-2.73-3.21-2.19-.8,1.26.31,1.23.87,2.19.8Z"/><path d="m655.02,78.18c2.27,1.71,5.17.72,6.23-1.77-2.04-1.25-5.04-.86-6.31,1.12.19.14.23.35.07.65Z"/><path d="m522.63,173.48c1.53.35,2.34,1.03,2.34,2.09-.24,1.6-1.22,1.62-1.64,2.82,1.52-.15,2.87-.69,4.71-.15.89,1.33,1.21,2.92,4.06,3.34.46-.8,1.15-1.12,1.97-1.15.71.65.14,1.91,1.32,2.34,1.11-.22.68-3.27,2.57-2.79,1.17.37.36,1.65,1.8,1.89.76-1.15.94-1.65,1.1-3.02,2.21-.46,1.71,2.15,2.99,2.02.42-1.19-1-1.51-.57-2.69,1.86-1.24,1.38-5.06,3.66-5.81,1.44-.17,4.87,2.72,7.06,1.94-6.06-.49-8.65-6.95-3.97-10.44-1.11-.6-1.44.49-2.49.03-1.13-.91-.64-2.58-.72-3.99-1.04-.61-1.27.54-2.39-.25-.68-.67-.69-1.65-.95-2.52-2.7-.41-2.73-2.07-3.79-3.24-.64.26-1.03,1.05-1.87.87-2.22-2.05-3.78,1.29-6.16-1-2.04,2.8-5.1,3.69-8.55,2.17-.7,1.62,1.4,1.93,1.3,3.27-.39,2.57-1.95,2.65-2.79,4.26.36,1.87.21,4.37-.47,7.28,1.44.47,1.28,1.68,1.5,2.72Z"/><path d="m505.08,173.93c3.19,2.5,4.51-2.05,6.73-3.14,0-.46-.15-.84-.15-1.3-1.22-.67-1.94-.26-2.77-.07-.31-2.44-3.45-1.76-4.24-.3-.98,1.83,1,3.12.43,4.81Z"/><path d="m563.22,90.77c-1.43-.92-2.49-2.03-3.89-2.97-.54,1.7,2.71,2.83,3.89,2.97Z"/><path d="m660.91,151.7c.4,1.25,2.81,1.65,3.32.27-.11-1.65-2.79-1.85-3.32-.27Z"/><path d="m605.52,69.2c1.04.75,2.2,1.24.95,2.52,1.51.19,2.54,1.6,3.34,2.77,2.17.24,3.22,1.07,4.46,2.24,1.45-2.09,3.97-1.9,6.15-2.42.01-1.49.74-2.49,2.09-2.34,1.35-2.54-.27-4.34,1.74-6.51-2.54-1.62-2.45-4.47-4.17-6.48-.44.52-.95.89-1.77.6-.68-.44-.27-1.39-1.25-1.69-.84,1.16-2.41.99-3.69-.1-1.53,1.59-3.45,2.36-5.61,2.62.96,1.81-1.3,3.2-2.32,3.81-.1,2.01,1.08,2.88.05,4.99Z"/><path d="m660.07,93.36c-.51.77.56.8.05,1.57-.52.68-1.6.16-1.97,1.15,1.43,1.15.73,3.3.6,5.18,1.42,1.23,1.21,3.23,2.74,4.41-2.49.02-4.76.53-5.91,3.44,4.88,5.11,8.87-4.78,14.61-.9,2.3-2.42,6.23-3.86,5.75-8.15.58-.54,1.61-.13,1.97-1.15-.59-.4-2.11-.38-2.09-1.07.42-.98.76-.92.7-1.92-1.52-.55-1.77-2.3-3.14-3.31-1.32-.97-3.45-.97-3.99-2.69-.88.87-2.14.72-3.32-.27-1.2,2.15-3.95.97-4.81,3.84-.47-.19-.87-.25-1.2-.12Z"/><path d="m646.74,129.18c1.42-.87,2.27.16,3.67,1.02,2.68-1.71,7.76-1.91,7.65-6.53.49-1.06,1.58-.83,1.99-2.07-1.44-2.29-.46-5.7-3.22-7.38l.4-1.1c-1.35-1.05-1.18-.77-2.94-.45-.75-1.15-1.7-.82-2.44-1.82-.89,1.02-1.99,1.6-3.89.45-1.78,1.92-5.01,2.64-6.06,5.56-.55,1.54.5,3.64-1.04,4.59-2.81-6.42-15.38-5.29-20.34-8.94,1.48-1.87,3.17-3.28,4.66-5.14,1.12.1,2.77-.65,2.37-2.24-4.14-.08-5.87,4.98-10.09,4.71-.88-2.2-2.37-3.27-3.54-5.63,1.26-4.1.06-6.77-.48-9.79-.22-1.25.53-2.62-1.02-3.17-.3.34-.67.51-1.12.52-.79,1.51.04,2.26-.75,3.76-3.38.51-7.43-3.18-10-5.8-.95,1.58-.15,2.35-.75,3.76-3.39.42-4.43-2.35-7.6-2.14-1.16-1.51-1.05-3.61-2.92-4.78-1.26-2.22-.39-5.43-2.3-7.35-.75,1.85.09,2.39.45,3.89.41,1.71.42,4.41.95,5.93.69,1.99,2.1,3.09,1.45,4.56-.89,2.02-3.35,1.25-5.58,1.7-4.47,6.97-12.29,1.48-17.65-2.69,2.88,3.13,7.24,5.57,9.45,9.02-2.62.89-5.16,1.94-7.3,3.86-1.57-.71-1.49-2.19-3.72-2.59-.79,1.43,1.09,1.62,1.22,2.62-4.61-.56-5-4.91-10-5.8.08-.42-.28-.63-.25-1.02.18-1.07.97-.84,1.25-1.72-.88-1.35-1.36-3-.52-4.54-1.62-1.6-2.84-3.38-2.15-6.06-1.25-.73-1.27,1.18-2.59.3.09-2.55-1.82-1.51-3.52-3.14-.47.29-.75,1-1.32,1.07-2.72-1.75-3.56.51-5.46.5-1.61-1.37-1.95-3.2-4.44-3.16-.46,1.5,2.39,1.46,2.42,2.74-1.93,2.2-3.69,4.78-5.8,6.58.87,1.13.95,2.99-.4,4.51,1.13,2.18,2.19,4.63,2.22,6.7.94.54,1.27-.21,2.12.15.64.92,1.26,1.84,1.02,3.17,3.19-.47,6.12.75,9.2,1.17.59-.2.66-1.52,1.25-1.72.87.24,1.65.29,2.39.25.83-.09.23-1.44.77-1.27,3.57,1.87,9.68,3.47,11.72,7.05-.21,3.26-.65,6.41-3.19,8.77-.6.17-1.74-.87-3.02-1.1-.62-.47.03-1.53-.87-1.87-5.11-.87-9.27.3-12.29,3.92-.24,1.56-.53,3.13-1.14,4.86.32,3.19,2.85,5.35,3.84,8.22.96-.91,2.96.02,3.66,1.02.51-.06,1.02-.13,1.52-.21.91,10.13,1.27,20.98,1.32,39.07v2.96c-.32-.07-.64-.13-.91-.16.3.17.61.34.91.5l.31,118.34c.12,44.55-19.98,65.82-62.41,65.93-41.38.11-61.59-21.05-61.71-65.61l-.32-121.65c-.07-26.16.6-40.32,2.68-53.41l-76.38.2c2.08,12.95,2.85,27.88,2.96,50.78-.36-.2-.8-.31-.78.03-.25-.1-.59-.07-.6.24-.29-.09-.37.06-.52-.07-.29.13-.06.43-.26.54-.06.03-.24-.02-.32,0,.05.05,0,.5-.46.4.02.27-.25.95.36,1.16-.08.26-.19.01-.34.16.12.28-.06.29.61.3-.13.07-.46.36-.52.24-.21.17.49.42.44.23.23.05.17.36.35.46-.28.14-.44.38-.77.47.29.17.17.29.27.54.13-.02.03-.23.17-.23.19.06.28.36-.08.31.48.15.78.42.61.77.32,0,.6.03.61.3,0,.15-.32-.12-.43.08.76.65.32,2-.59,2.17-.01.3-.01.72-.43.78.24.42.38.84-.07,1.31-.04.24.24.2.26.38-.45.27-.05.72-.6.93.46.52.02.79.53,1-.26,1.02,1.2,1.07,1.49,1.84-.02.14-.15.18-.34.16.03.17.25.49-.17.47.13.29.2.28,0,.54h.26c-.37.15-.07.46-.34.62.09.71,1.42,1.66.63,2.16.16.06.14.58-.17.54.47.49.89,1.08,1.26,1.69l.14,52.64c-.09-.05-.09-.18-.26-.15.16.13-.12.24.18.31-.14.1-.31-.17-.52,0,.06.08.2.08.18.23-.21.17-.65.14-.69.47.33-.12.17.21.43.15-.17.23-.32-.22-.61-.15-.06.44-.01.35,0,.62-.15.3-.42.15-.69.24.01.09-.02.14-.09.16,0,.26.28.26.27.54-.01.09-.16.07-.26.08.29.43-.04.67.1,1.16.17.13.11,0,.35,0-.5.13.19.34.27.54.02.04-.14.14-.08.23.02.03.26.03.26.07,0,.34-1.39,1.02-.85,1.55-.06.07-.16.12-.26.16.45.07-.05.58.52.46-.27.1-.51.22-.78.32.03.16.24.15.26.31-.48-.03-.58-.24-.87.09.03.18.32-.01.35-.08.16,0,.06.26.26.23-.11.08-.24.08-.34.16,0,.34.24.02.35,0,.03.11.09.16.35.23-.23.14-.01.23-.34.31.11.23.33-.06.43-.08-.18.36-.44.64-.86.78.06.14.16,0,.26,0,.16.32-.62.46-.17.54-.24.17-.4.18-.6.24.03.16.23-.12.26.15-.28,0-.24.08-.52.24-.2-.04.1-.12-.09-.23-.24,0,.21.21-.17.16.02.08.17.05.18.15.01.04-.49.09-.09.16-.1.14-.62.07-.34.31-.28-.2-.3.19-.61,0,.17.56.05,1.32-.42,1.55.34.12.25.45.7.22-.01.17-.22.17-.43.16.23.18-.23.21,0,.39-.08-.06-.2-.08-.35-.07.1.15.33.29.61.46-.02.18-.38.05-.35-.07-.09.15-.16.32-.52.24.21.32.5.1.87.22-.72.2-1.17.77-1.2,1.17.09.27.15.14.35.23,0,.2-.32.13-.43.24.18.35-.02.57.27.77-.22.06-.29.26-.52.31.65.38.89.96,1.14,1.53-.42-.18.03.19-.26.47.16,0,.18-.1.35-.08-.27.18-.03.05,0,.31-.01.09-.16.07-.26.08,0,.58.28,1.26-.07,1.86.44.09-.11.61.18.85-.07.12-.13-.02-.35.08.23.18-.23.21,0,.39-.45-.17-.05-.05-.61.08-.08.27-.13.8.36.92-.26.07-.07.41.09.54-.31.3-.34,1.29-.07,1.39-.07.3-.48-.06-.43.24.31.27.22,1.02.28,1.85-.44.05,0-.27-.35-.23,0,.34-.13.36.09.54.29-.03-.23-.3.17-.23,0,.48.81.93.45,1.31.05.19.33.17.52.23-.25.45.17.77.44,1.08,0,.07-.11.06-.17.08.45.64-.36.91-.5,1.71.05.37.42.45.7.61-.06.15-.26.18-.34.31.03.16.18.2.26.31-.14.23-.27.03-.43.16-.06.41.29.6.62,1-.23.32-.05.7-.51.55.12.13.22.26.44.3.13.29-.72.38-.26.47-.11.02-.34.3-.34.16-.22.47.45,1.15.19,1.7-.09.18-.3.25-.6.24.37.24.43.73.53.85.05.05.19-.05.17-.08.11.19-.04.56.35.85-.27-.12-.34-.06-.52-.15-.25.48-.48.54-.68.86.1.23.47.15.26.46.24-.07.23.11.43.07-.05.07-.24.12-.09.16-.04.11-.11-.03-.26,0-.1.34.57.93.27,1.16.13.14.28.27.44.38-.21.14-.09.1-.08.39-.01.09-.16.07-.26.08.18.49-.19.86-.6,1.09.08.22.13.09.35.07-.15.16.07.15-.08.31-.22.09-.34-.36-.35,0,.3,0-.01.2.35.23-.28.34-.32.55-.6.78.33.32.23.59-.08.85.18.73.11,1.52,1.06,1.84-.34.16.1.18,0,.54.41-.14.61.65.53,1-.08.14-.3.14-.43.24.06.23.18-.08.35,0-.17.16-.32.29-.6.16.25.74.78,1.16,1.58,1.69-.13.29-.44.43-.77.55-.05.11.34.19.09.23.02.16.38.02.43.15-.11.24.03.22,0,.54.52-.15.7.65,1.22.76-.17.17-.45.17-.69.08-.07.27,0,.19-.08.46.07-.04.14-.08.26-.08.06.31-.45.12-.43.39.15-.11.2-.07.18.15.21.03.19-.14.43-.08.06.17-.48.31-.08.31-.08.21-.31-.13-.43.08-.19.18.22.25.09.62.12-.02.07-.19.08-.31.3-.03.37.41.09.46.06.14.16,0,.26,0,.3.09-.49.48.09.39-.31.03-.27.32-.43.16-.29.63,1.07,1.23.89,2,.72.26.92.98,1.4,1.46-.04.25-.16.42-.17.7.12.09.14.03.26,0-.31.46.11.78.7.92-.01.09-.16.07-.26.08.06.31.38.38.7.46-.06.19-.13.46.09.54-.08.24-.33.33-.52.47.24.42-.25.64-.51.86.38.65-.4.91-.68,1.24-.02.32.12-.01.35.07-.05.07-.1.14,0,.15-.1.16-.39-.16-.69-.07.09.12.64.5.27.54.08.13.27.17.52.15-.03.1-.15.12-.17.23-.32.05-.33-.16-.61-.15.08.13.16.27.44.23-.04.51.53.84.79,1.31-.51.14-.3.57-.69.7,1.14.44.97,1.66-.33,1.86.25.27.14.5-.08.85.08,1.17.9,1.61,1.84,2.15.08.87-.31,1.23-.85,2.02h.26c-.53.04-.03.25-.69.16,0,.21-.14.16,0,.31.17-.18.2-.12.61-.16.07.49-.29.12-.52.31.02.09.16.06.26.07-.02.11-.26.03-.26.16-.15-.02.11-.27-.26-.23.09.34-.18.36-.25.54-.05-.11-.33,0-.35-.15-.07.52-.47,1.06-.5,1.63-.08-.03-.16-.07-.17-.15.09.29-.37.79,0,1-.06.07-.16.12-.26.16.05.07.24.11.09.15.41.13.71.2.87.53-.29.15-.3.69-.42.93.22.09.39.22.61.3-.21.16-.09.12-.17.39.24.1.62-.08.7.3.26-.14.6-.22.61.23-.28.1-.07-.25-.35-.15-.14.12-.12.44.18.39-.07.23-.28-.04-.43,0,.15-.2-.13-.3.17-.31-.25-.34-.4.05-.78,0,.08.17.22.27.52.23-.05.07-.1.14,0,.15-.01.19-.29.03-.35,0-.21.05.18.19.35.15.07.24-.24.15-.17.39.13-.12.49-.12.43.15,0,.14-.44-.14-.43.16.16-.11.38.1.78,0-.01.18-.32.48-.52.24-.33.09.33.3.26.15.03.1.24.3.18.69-.25.02-.47.01-.44-.23-.28.29.4.36.7.38-.02.27-.64,0-.6.32-.13-.04-.21-.12-.26-.23-.24.2.31.34.52.38-.04.35.2.48-.17.54.08.26.19,0,.35.15-.04.34-.22.45-.08.85-.2.22-.36.08-.6.32.37.63.65,1.66.02,2.09.26.24.09.46.09.85.19-.11.54.15.7.3-.23.17-.24-.33-.61-.07.63.25.24,1.01.62,1.54-.25.06-.39.22-.6.32.41.14-.48.41-.08.77.32-.16.24-.06.61,0-.26.33-.57-.09-.95.09-.01.22.25.19.35.31-.29.2-.53.14-.69.32.09.22.37-.02.52,0-.27.32-.7.56-.42.93-.02.26-.27.33-.34.54.43-.15.39.27.44.61.18.03.23-.06.35-.08-.1.1-.07.16.09.15.02.23-.19.24-.17.47.83.27-.25.88.27,1,.03,0,.05.01.07.01-.04.02-.09.08-.07.22.02.15.29.48.52.38-.05.19-.17.4.18.38-.03.26-.23.1-.08.39.44-.42-.08.58-.43.62.12.24.38-.15.52.07-.02.29-.35.3-.6.39-.04.38.49.64.36.85.09.13.26-.2.52,0-.28.17-.19.2-.43.24-.04.17.13.15.26.15-.25.14-.03.58.27.54-.04.07-.07.14-.17.16.04.15.34.06.26.31.38-.21.46.16.78.22.02.17-.31.04-.43.08.05.07.11.14,0,.15.63.34.85,1.88,2.1,2.22.07.27.01.28.09.62-.01.14-.29.05-.34.16-.05.11.34.19.09.23.2.05.28-.23.69-.16.13.03-.03.1,0,.23-.07.14-.32-.25-.43.08.12.21.46.06.78.22-.06.6-.15.45-.95.55.05.11.13.19.18.31.02.17-.31.04-.43.08.05.07.2.28-.08.23.11.25.06.63.18.85.15.1.23.26.52.23-.06.08-.2.08-.17.23.27-.04.34.11.52.15-.3.09-.09.03-.34.16.21.09.2.39.52.38-.25.17-.36.13-.6.39.33.49.65.47.62,1.08.15-.02.43.07.35-.16.08.21.11.46-.08.7-.49-.05-.12-.32-.69-.15.01.2.13.3.35.31-.46.4-.02.75-.08,1.16.16,0,.18-.1.35-.08,0,.25-.46.34-.25.54.18.03.23-.06.35-.08-.15.28,0,.23.35.23.11.25-.28.06-.17.31.22.17.62.17.7.46-.07.23-.13-.18-.35-.07.16.2-.02.24-.26.16.25.32.23.27.53.61.32.08.25-.19.52-.16-.29.51,1.08.76,1.74.91-.36.35.27.87.7,1.15-.06.08-.2.08-.17.23.41-.08.23-.16.61,0-.5.25.96.52.36,1.08,1.24.41,2.12.68,3.56,1.12-.19.39.29.48.09.85.15.03.16-.06.17-.16.09.02.06.15.17.15-.12.33-.14.33,0,.7-.45-.22-.24-.09-.43,0,.11.34.48,1.12,1.05,1.3-.07.07-.09.18-.08.31-.18-.28-.29-.15-.69-.22.53,1.13,2.05,1.9,3.49,2.28-.06.1-.18.15-.35.16-.08.4.39.67.7.61-.13.15.51.47.09.62.45.46.36.54.53,1,.25-.23.37.24.52-.08.14.03-.07.14.09.15-.07.12-.13-.02-.35.08.23.13.37.34.53.54.02.17-.31.04-.43.08.3.39.97,1.08.45,1.39.58.45.63.91,1.4,1.15-.39.25,1.4.54,1.92,1.14.11.13.21.32.27.77.28,0,.21.33.52.3-.37,1.38,1.55,1.69,1.16,3.08.57.23.73.61,1.13.84-.07.2-.35.2-.52.31.18.21.64-.25.95.07-.15.84-.7,1.27-.15,1.86-.09.07-.02.29-.26.23.02.16.38.02.43.15-.35.06.07.43-.26.39.08.22.25.34.61.3-.18.5.91.34,1.14,1.07-.02.16-.23.16-.34.24.45.1.03.27.18.46h.35c.02.08-.21.52.26.53-.09.07-.02.29-.26.23.7.87.17,1.98-.67,2.17.48.77,1.86,1.5,1.32,2.38-.02.37.49.43,0,.62.12.49.9.38.88,1l8.09-.08c21.62,19.64,55.59,30.43,96.68,30.32,85.22-.23,133.55-45.97,133.33-126.6l-.32-121.65c-.02-7.39.03-13.68.15-19.3,2.76,2.25,5.21,4.83,9.35,4.89,4.6-6.9-9.65-10.3-8.16-16,.93-3.52,3.62-1.36,6.13-1.5.12-2.42-3.74-1.91-4.24-3.71.75-2.45,3.07-1.55,4.76-2,.53-2.83,2.74-2.25,4.44-3.66-.14-1.68-2.84-2.17-2.57-4.04,2.28-1.63,6.11-5.49,8.72-1.8,2.03-.69,2.63,1,3.44,2.49Zm-289.76,43.84c-.14-.17,0-.43.17-.23-.27.08.19.13.17.23-.22.21-.13-.21-.35,0Zm.95,0c-.12,0-.19-.03-.26-.07v-.15c.07-.02.17,0,.17-.08-.05,0-.1-.06,0-.08,0,.13.24.04.26.15-.11.03-.18.1-.17.23Zm-.53,78.55c.12-.18-.23-.29,0-.31.02.09.1.05.17,0,.14.11.1.34-.17.31Zm.85,69.49c.19-.38.24-.36.52-.31-.17.05.09.26-.08.31,0-.21-.43.21-.43,0Zm.22,4.64c-.03-.1-.12-.15-.09-.31.42.24.4-.24.61-.08-.1.02-.05.09,0,.16-.32.12-.33.07-.52.24Zm.24-153.22c.16.02.19-.09.35-.08-.02.13.07.17.08.28,0,0,0,.02,0,.02-.26.03-.35-.09-.43-.23Zm1.34,172.92h-.43c.02-.15-.12-.15-.18-.23.25-.01.02-.47.34-.24-.25.13.33.16.35.31-.07.02-.1.07-.09.16Zm.36,1.08c.59-.15.17-.07.26.23-.23.06-.17-.16-.26-.23Zm.88,1.15c-.02-.09-.14-.08-.26-.07,0-.14-.02-.24-.09-.31.12,0,.19.04.26.08.02-.06,0-.15.09-.16.07.05.2.43,0,.46Zm-.09-.69c.05,0,.1-.01.09-.08-.13.04-.69-.01-.61-.07.31-.03.5-.15.78,0-.12-.01-.11.45-.26.16Zm.26.31v-.31c.2-.02.32.02.35.15-.17,0-.11.21-.35.16Zm1.49,1.92c.05,0,.1.01.09.08-.37-.06-.35.01-.69-.07-.02.06,0,.15-.09.16-.23-.22.25-.29.17-.62h.26c-.02.25.14.26.44.38-.07.02-.17,0-.17.08Zm.36,1.31c.06-.21-.17-.15-.18-.31.22-.1.27.3.35.07-.05,0-.1-.06,0-.08.14.11.1.34-.17.31Zm9.34,15.76c-.12-.08-.32-.07-.35-.23.11-.08.32-.08.43-.16-.31.25-.1.24-.08.39Z"/><path d="m1364.48,96.59c2.82-.6,2.09-1.8,3.82-2.94,1.82-1.21,5.98-1.53,5.38-3.35-.7-2.14-8.19-4.25-14.85-4.59-8.19-.42-12.87,2.18-20.99,1.61-2.47.68-7.82.03-8.77,1.41-.25.42.89.47.42.95-1.79,1.46-5.7.44-9.16.1-5.69-.56-8.05,1.07-13.31,1.01-1.16.67-.55.99-.7,2.12-2.55,2.77-8.88,3.8-14.2,5.3-1.55,3.23-7.21,4.57-11.26,6.65-.05.42.82.61.41,1.13-.91.33-2.15.51-2.15,1.27-3.34-.1-4.29.91-4.28,2.35-3.52,1.05-2.66,3.68-3.5,5.15,2.29.81,3.23,1.98,2.74,3.52,1.27,1.2,4.09,1.99,5.31,3.2.04,0,.08.01.12.02,1.86,14.05,2.51,24.61,2.58,49.49l.5,189.54c.06,23.7-.61,38.54-2.69,52.34l32.14-.08c1.22.27,2.19.67,2.55,1.24-.52.2-1.39.23-1.57.59,2.54-.5,2.88.76,3.99.9,1.99.24,6.29-.53,9.65.12,1.66.32,1.75.95,3.94,1.44,1.46-.61.67-.92.16-1.81,2.16.14.45-.15,2.08-.55-.06.31.35.5.96.63.72-.67,2.13-1.03,4.65-.86,1.25.39,1.14,1.01,2.98.81,1.83-.04-2.52-.83-.94-.81,1.13.46.56,0,1.53-.05,1.99.34.39.94,1.94,1.08,2.57-.24.52-.8.14-1.62.76-.34,1.23-.77,1.56-1.2l12.04-.03c-1.76-12.09-2.58-23.02-2.85-39.84.32-.76.69-1.54,1.04-2.33-.37-1.15-.74-2.29-1.11-3.44-.02-2.15-.03-4.37-.04-6.72l-.19-72.56c.44-.55.33-1.13,0-1.74l-.02-6.69c.28-.39.49-.79.54-1.2.27-2.17-.3-4.56-.56-6.96v-3.47c.18-1.21.64-2.38.78-3.57.73-6.01.96-11.46,0-17.29,1.22-2.08-.91-6.77.88-9.93-2.12-2.92-.16-6.97.89-10.12.98-2.94,3.14-5.67,1.29-8.81.58-.42,1.88-.51,2.13-1.09-.69-2.01.33-4.21,1-5.55,2.83-5.7-.11-12.71,2.59-17.79-2.98-3.16-7.77-7.52-6.17-10.74,2.12-4.26-.66-9.22-1.8-14.18-1.15-5,3.44-9.48.23-14.18-.03-.58,1.39-.48,1.12-1.18-.61-5.68-4.92-11.67,3.88-15.13,4.32-.93,7.9-1.11,12.86-1.6,10.77.15,18.35,2.22,27.19,3.13,2.17,1.02,5.26,1.8,7.9,2.7.12-.13.44-.17,1.02-.09,2.49-4.04-10.49-3.73-15.74-6.12-5.34-2.43-5.49-5.36-7.87-8.7,1.94-.62,2.3-1.3,4.21-1.63.44-.08,1.52.22,2.02.18,2.48-.19,5.32-1.01,8.27-1.45,2.84-.43,5.99-.53,7.71-.96.96-.24,1.22-.82,2.13-1.09,1.95-.57,4.88-.8,6.73-1.41,7-2.31,12.63-7.41,12.27-12.21-.71-9.48-40.35-14.11-65.53-12.34Zm-42.37,7.55c.87-.29,1.43-.72,3.11-.64-1.02.22-.88.97-3.11.64Zm-3.15-4.65c4.46-.36,8.48-1.81,14.32-.92-6.84,2.96-19.16,4.29-20.15,9.33-1.58.21-2.61.68-4.15.91-2.52-.46-2.35-1.17-5.01-.81,1.93-4.25,11.25-5.09,14.99-8.51Zm52.19,13.71c-.78-.15-.38-.61-1.99-.54-.26-.69,2.42-.01,2.59-.5-2.27-.6-5.08-.48-5.65.59-1.42-.16-3.47-.15-3.5-.67-1.16.69-3.39.08-5.57-.31.33-4,11.82-2.3,18.91-1.06.45,1.77-3.75,1.41-4.8,2.49Zm41.69,5.86c-6.37.98-14.61,3.06-22.36-.15,4.13-2.67,7.71-5.37,6.88-8.86-.66-2.78-5.31-5.49-9.49-7.75-3.61-.41-6.26-1.61-9.98-2.16-5.23-.77-10.33-.36-15.19-.79-.06-.59.96-.68.63-1.4,19.31-1.29,56.45.89,62.23,9.31,3.61,5.26-4.84,8.95-12.74,11.8Z"/><path d="m1373.69,211.17c2.86.29,3.82-.78,2.7-1.76-5.1-1.22-5.19.82-2.7,1.76Z"/><path d="m910.37,278.66c-.04-1.52.91-1.5.96-2.86-1.85-.59-1.53,2.15-.96,2.86Z"/><path d="m925.05,256.28c-.06-4.17-.67-7.95-2.93-10.56-1.64.81-.83,2.9-.89,4.61-4.33,2.39-2.21,9.51-2.03,12.65,1.23.5,1.39-.55,2,.39-.29,1.29-.27,2.36.23,3.09.86-1.89,1.64-.56,2.79.54,2.28-3.93-3.42-7.36.83-10.71Z"/><path d="m857.81,248.49c-2.77,2.52-2.32,8.1,3.01,7.97,4.46-2.08,2.48-10.07-3.01-7.97Z"/><path d="m909.49,248.93c-3.61-.09-2.56,5.24-1.3,6.7.18-.49.49-.17.8.16.4-.83,1.22-1.01,1.28-2.36-.1-.77-1.9-.33-1.83-1.22.73-1.07,1.38-1.88,1.05-3.28Z"/><path d="m911.55,255.41c.5-.67,1.72-.22,1.6-1.87-.96-.35-2.14,1.68-1.6,1.87Z"/><path d="m915.02,269.56c1.92-.09,3.59-.59,4.56-2.16-.64-.51-.79-1.37-2.23-1.3-.74,1.22-2.14,1.39-2.33,3.46Z"/><path d="m907.58,275.95c.1,1.25-.77.98-.8,2.02.81.02.68.72,1.03,1.07-.63-1.38,1.19-2.27-.23-3.09Z"/><path d="m913.48,251.87l.24-1.26c-.39-.44-.96-.76-1.91-.81-.26,1.03-.13,1.78.39,2.25.16-.47.72-.33,1.28-.19Z"/><path d="m671.95,186.02c-.19-1.62,1.44-3.15.73-3.77-.72,1.4-1.54,2.2-.73,3.77Z"/><path d="m919.53,229.13c-3.82-.17-3.2-3.51-4.78-5.27-.81,7.18,1.52,11.23,2.83,17.5,1.17.91,2.19-.2,3.75-.14,3.06-5.81-.67-7.62-1.8-12.09Z"/><path d="m959.17,193.33c-1.12-.66-.89.8-1.12,1.52.72.04,1.92.81,1.76-.53-.46-.16-1.15-.15-1.12-.65.25.02.48.03.48-.34Z"/><path d="m652.86,271.88c.09-2.66,2.22,1.03,2.72-1.21-1.29-1.22-3.15-.09-4.71-1.35-.19,1.46.83,2.06,1.99,2.56Z"/><path d="m656.27,277.76c-.74-.8-2.39-.95-2.47-2.22.55-.12,2.63-.55,1.52-1.45-2.87-.02-5.36-2.25-9.1-2.19.48.62.3,1.72.79,2.33,1.43.04,2.34-.71,3.84-.56l-.81,4.19c1.48-.03,5.74-1,4.71,1.35,1.22.62.83-1.26,1.52-1.45Z"/><path d="m961.08,198.48c.18-1.22.75-2.7.25-3.43l-1.2-.23c.31,1.22-.12,2.98.95,3.66Z"/><path d="m655.43,267.16c1.53-3.52-1.79-1.82-1.36.61.22-.57.97-.31,1.36-.61Z"/><path d="m964.35,198.68c-.44,4.86-1.52,8.34,2.92,10.57-1.62-2.02,1.15-2.91-.31-4.84-.16.48-.16,1.2-.64,1.18.09-2.07-1.37-3.29-.62-5.34-1.64.32.28-1.89-1.35-1.57Z"/><path d="m968.7,212.56c.17.02,1.77-2.92-.23-3.09.22,1.73-1.15,2.51.23,3.09Z"/><path d="m900.15,273.64c-1.87-2.69,0-4.28,1.38-7.13-5.83-3.03-4.93,7.32-1.38,7.13Z"/><path d="m950.23,331.58c-.03,1.4-.65,1.9-.97,2.85,1.18.2,1.67-.67,2.32-1.29-1.35.12-.28-1.49-1.35-1.57Z"/><path d="m954.16,187.14c1.23-1.78-.13-3.71-1.59-4.65-1.34,1.6-1.46,5.01,1.59,4.65Z"/><path d="m940.45,290.13c-.18,2.52-5.55,8-1.63,10.55,2.25-2.6,3.02-7.36,1.63-10.55Z"/><path d="m940.61,344.93c1.94.51,5.7-3.31,5.37-6.35-2.7.69-4.37,2.99-5.37,6.35Z"/><path d="m962.62,303.98c-1.54,1.2.53,2.02-.33,3.85,2.39.05,3.18-3.37.33-3.85Z"/><path d="m922.79,291.5c1.28-7.18,3.24-15.25,1.42-22.33-.92-.35-.15,1.95-1.44,1.03-1.33-.83.14-1.4-.31-2.67-.91-.31-1.37-.95-2.71-.96,1.02,1.68-.03,5.92-2.65,5.14.16,2.88-.74-.16-1.6,1.86-.6-1.57-1.93-1.74-.55-3.58-1.63-.54-2.37.3-3.75.14.17-.78-.13-.95-.72-.57.79-.65-.09-1.49,1.2-1.94,1.58-.16.94,1.26,2.23,1.3.53-2.35-.22-3.45.09-4.76,6.62.59.77-9.7.09-2.59-1.98,0-2.33,2.54-4.24,2.66,0,2.35-3.58,5.75-5.84,4.52.59,2.19-.91,5.03,1.18,6.75,1.2-2.65,3.88-.46,4.31,1.27.06-.81.63-.84.72-1.6-.56-.69-2.57-.34-2.15-1.72,1.54,1.7,1.64-1.13,2.64-.79,1.14.51-.55.82-.32,1.68,1.33.26,1.39-1.48,2.4-1.71.48,2.07,1.97,3.42,3.66,4.62,0-1.2-.97-1.71-.63-3.16,1.04-.36.73.2,2.07-.03-.11,2.3-.68,3.93-1.62,6.21,1.14.71,1.24,2.15,2.07,2.14-.55-.34-.45,3.39-1.6,1.87-.28.8.38.93.56,1.41-2.5.81-6.72-.45-3.91-1.19,2.03-.53,2.18-3.24.89-4.61-5.8-3.03-7.15,13.12-12.24,7.63-.14.69-1.15.02-1.36.6.43.18.53.59.64.99-1.19-.77-.57,1.3-1.76.53-.23-1.45,1.35-.07,1.12-1.52-1.19-.12-1.04-1.18-2.23-1.3-.09.76-.59.9-1.36.61.33,2.6-2.41,2.38-4.16,2.24l-.32,1.68c1.45.05,2.02-.89,3.27.2.09-1.17,2.27-1.85,2.32-1.29-1.68,4.03-6.38,0-7.84,4.13.05-.63-.89-.57-1.51-.73-.65,2.83-5.39,6.69-2.98,8.99,1.31-1.59,3.16-2.34,5.12-2.92-.54-.22-.28-1.01-.56-1.41,2.37-1.31,7.14-1.47,7.99-.63-.88.83-2.15,3.21-.33,3.85-.42-1.72.84-3.18,2.33-3.46.26,2.46-.86,1.51-.73,3.77.74.24.97-.3,1.68-.11-.03-1.48.66-2.98.09-4.76,1.8-.48,3.91-3.34,6.39-.94-1.96.63-.82,3.15.55,3.58.69-.56,1.58-.81,2.64-.79-.08.42.23.56.24.92.12,1.64-1.22,1-1.28,2.36.4.44.96.76,1.91.8,0-2.82,5.3-.8,7.52-2.46-1.89-.95-2.28-2.96-4.22-3.86-1.42,1.58-4.3,2.6-5.43-1.92,1.56-1.2,2.6-3.22,4.8-3.42-.35,1.93.61,2.94.79,4.5,2.63-.38,1.74-.69,4.47.43.28-1.38,1.08-1.96,1.13-3.69.98.27,1.38-.4,1.84-.95Z"/><path d="m897.43,307.02c.96.05,1.63-.37,2.87.12l.24-1.26c-1.3-.28-1.29-1.48-3.03-1.45-.25,1.02-.45,2.01-.09,2.59Z"/><path d="m632.68,260.59c.77.05.79.64,1.52.73.13-.53.62-.48.64-1.18-.44-.75-2-.81-2.16.45Z"/><path d="m891.9,309.86c.96-1.33-.43-3.66-2.06-4.31.8,1.76,1.42,1.84.87,4.08l1.2.23Z"/><path d="m899.18,278.67c-2.1-.71-3.32,2.17-2.8,3.81,2.56-.73,4.62-1.99,4.41-5.67-1.19-.97-2.46-1.3-3.43-1.53,1.18-2.12-1.81-2.36.17-3.01-1.02-.24-.26-1.75-1.27-1.99-.86.96-1.82,1.74-2.4,1.71.52,1.39-2.23,2.32-2.17,4.8,2.5-.65,5.82-.45,7.5,1.88Zm-3.1-5.38c.48.38.57,1.04.47,1.83-.7-.04-.89-.91-1.2-.23-1.14-.65.68-1.03.72-1.6Z"/><path d="m635.28,245c.27,1.7-1.26.59-1.21,1.94,1.26-.37,1.93,1.72,2.07-.03-1.7.37.21-1.83-.87-1.91Z"/><path d="m920.05,299.23c.43-.42.74-1.02.8-2.02-1.39-.69-1.99,1.75-.8,2.02Z"/><path d="m908.23,300.42c-.68,2.06-.52,2.06-1.53,3.62.28.52,1.45.42.95,1.49-.69.37-1.21,1.02-2.24.87-.46,1.66,1.66,1.47,1.99,2.56-.05-1.35,1.25-.6,1.2-1.94-1.39-1.64.44-2.33,1.13-3.69-1.71-.11.41-2.94-1.51-2.9Z"/><path d="m906.94,302.77c-.5-1.29-2.48-1.92-1.43-3.32-1.54-.54-1.16-.46-2.79-.54.44,2.31-.77,2-1.21,4.11,2.08-.35,4.61.82,5.43-.25Z"/><path d="m638.1,264.68l-.32,1.68c.98.25,1.7.1,2.16-.46-.73-.33-.49-1.34-1.83-1.22Z"/><path d="m356.12,252.49c-.19.01-.03.33-.08.46.18-.02.08-.29.26-.31-.02-.08-.17-.05-.17-.15Z"/><path d="m298.6,278.62c-10.28-8.81-19.49-13.03-36.82-16.88,14.49-5.34,20.84-8.89,28.6-15.63,13.41-12.06,20.43-29.05,20.37-50.63-.1-37.8-22.21-63.02-61.05-71.16,3.07-.52,6.08-1.19,9.57-.81.65-6.57,2.9-8.65,7.48-11.09-4.18-3.57-2.96-10.38.9-14.35-2.27-1.24-2.58,1.71-5.13-.14-1.77-7.76-13.94-7.36-18.99-9.48-2.99,3.54-6.29,6.42-10.95,6.38,1.27,4.26-1.14,7.74-4.64,10.4,3.21,3.36,1.42,9.04,2.98,13.17,2.2-.39,4.51,2.04,6.7,4.03-5.04-.56-10.31-.87-15.81-.93,2.26-.75,5.24-1.51,4.75-2.96-1.59.92-5.71,1.57-6.44,2.94-.15,0-.3,0-.45,0l-15.64.04c-2.92-5.19-3.54-11.46-12.33-13.91-3.78.35-5.23,2.11-9.22-.76,1.22-2.48,4.2-5.14-.35-6.17-3.63,5.31-6.89,12.43-15.17,10.89-1.08,2.22-1.31,6.24-3.74,5.55-3.5-4.27-10.27-7.02-14.07-11.15-3.08,1.99-6.01,4.3-10.6,3.06-3.25-3.33-.75-9.36-6.1-11.71-1.9,0-3.6.42-4.43,2.7-.57,4.06,4.3,5.59,3.33,9.84-4.95.69-6.74,8.16-11.78,8.67-9.23-10.83-24.72-16.36-37.01-16.9-4.15,7.66-12.42-1.83-17.53,3.13-2.33-3.45-3.2-17.1-6.86-11.99,4.08,2.18,5.64,11.22,3.95,15.25-1.64,3.92-5.82,3.45-8.38,6.45-4.73,5.52-4.63,12.57-7.41,18.02-1.36.7-3.77-.84-5.13-.14-.79,3.54.75,5.98,0,9.5-4.29,2.56-8.26,5.82-13.03,7.35.95,2.72,2.48,5.17,2.08,8.52-6.53,4.51-6.4,15.64-3.39,21.21-1.33,1.68-3.18,2.23-4.22,4.5,3.22,3.14,7.34,5.86,6.38,10.95-1,2.41-5.28,1.85-4.22,4.51,5.13,1.74,12.22,4.33,6.59,12.75,5.36.16,10.93.02,10.6,6.44-1.11,1.76-5.39,3.73-4.5,5.27,3.79-3.41,10.12.01,11.43,4.15,2.63-.25,4.05-3.07,7.49-1.6,4.34.93,2.94,4.53,5.47,6.3,2.74.9,3.8-1.81,6.93-.07,2.4,1.2.06,4.61,3.19,5.47,1.77-2.19,2.97-5.6,6.16-4.74l.35,132.29c.06,24.75-.61,36.78-2.69,51.99,15.2-.74,25.45-1.13,52.33-1.19,0,0,42.75-.11,71.25-.19,7.12-.02,13.25.1,17.59.22,11.77,5.99,9.57,12.06,7.36,18.12,41.35-19.31,70.56-43.03,94.71-81.1,2.13-6.14,2.67-12.18,2.66-18.55-.06-23.34-7.9-42.41-23.13-55.81Zm-151.22-83.59c.85.22,1.62.28,2.22-.03,2.47-2.2.72-2.9,1.18-5.61,3.34.39,6.63.65,9.98,1.03,1.06-3.16,4.15-1.95,4.78-6.03-2.91-4.23-8.08-3.61-13.23-3.95-.04-.3-.15-.56-.3-.81l56.86-.15c20.16-.05,31.15,9.82,31.2,27.15.05,17.33-11.6,28.32-30.34,28.37l-62.24.16-.11-40.14Zm65.5,162.32l-65.07.17-.18-65.77,64.71-.17c22.63-.06,36.1,11.92,36.16,32.43.06,20.87-13.35,33.28-35.63,33.33Z"/></g></svg>