<?xml version="1.0" encoding="utf-8"?>
<!-- Generator: Adobe Illustrator 27.3.1, SVG Export Plug-In . SVG Version: 6.00 Build 0)  -->
<svg version="1.1" id="レイヤー_1" xmlns="http://www.w3.org/2000/svg" xmlns:xlink="http://www.w3.org/1999/xlink" x="0px"
	 y="0px" viewBox="0 0 120 40" style="enable-background:new 0 0 120 40;" xml:space="preserve">
<path d="M7,7.1c0-0.2-0.2-0.3-0.4-0.5c-0.1,0.3,0,0.4,0,0.6C6.8,7.3,7,7.3,7,7.1z M2.1,16.4c0.2,0.1,0.4,0,0.5-0.2
	C2.4,16.1,2.3,16.2,2.1,16.4z M9.7,8.3c0.2-0.5-0.4-0.9-0.6-0.2C9.2,8.3,9.6,8.4,9.7,8.3z M4.8,11.4c0.1-0.4-0.2-0.8-0.6-0.6
	C4.1,11.1,4.4,11.4,4.8,11.4z M12.9,5.1c0.2,0,0.2-0.4,0.4-0.6c-0.1,0-0.1-0.1-0.2-0.1C12.9,4.4,12.5,5,12.9,5.1z M96.9,6.8
	c-0.1-0.1-0.4-0.2-0.5-0.1C96.1,7.2,97,7.3,96.9,6.8z M90.7,2.1c0.7,0,0.5-1.3,0.2-1.5s-0.6-0.2-0.8,0.1C89.7,1.3,90.1,1.8,90.7,2.1
	z M94.5,11.3c-0.2-0.1-0.4-0.1-0.5,0.2C94.2,11.5,94.4,11.5,94.5,11.3z M87.8,17.9V18H88C88,18,87.9,18,87.8,17.9z M79.1,15.2
	c-0.4,0.4-0.9,0.3-1.2,0.9c0.4-0.1,0.8-0.5,1.2-0.7C79.1,15.4,79.1,15.2,79.1,15.2z M97,4c-0.3-0.2-0.6-0.2-0.7,0.1
	C96.1,4.6,97.2,4.8,97,4z M79.2,15.2c0.2,0,0.3-0.2,0.4-0.3C79.5,14.9,79.4,15.1,79.2,15.2z M79.3,17.5c-0.7-0.7-1.9-0.5-2,0.7
	c0.1,0.2,0.2,0.4,0.3,0.7c0.4,0.2,0.7,0.4,1.1,0.3c0.2-0.3,0.6-0.3,0.9-0.5C79.4,18.3,79.4,17.8,79.3,17.5z M79.8,6.7
	c0,0.2,0.5,0.6,0.5,0.6C80.2,7.1,80,6.9,79.8,6.7z M82.1,6.1C82.1,6,82,5.9,81.9,6C82,6,82.1,6.2,82.1,6.1z M88.6,4.8
	C88.5,4.8,88.6,4.7,88.6,4.8c-0.4,0.1-0.6,0.5-0.8,0.9C88.1,5.5,88.3,5,88.6,4.8z M89.5,17.1c0-0.3-0.4-0.4-0.6-0.6
	C89.1,16.7,89.2,16.9,89.5,17.1z M79.7,6.6c-0.1-0.3-0.2-0.5-0.5-0.7C79.3,6.3,79.5,6.5,79.7,6.6z M89.8,1.6c0.1,0.3,0,0.7,0.2,0.9
	C90,2.2,90,1.9,89.8,1.6z M76.8,10.5c0.1-0.1,0-0.1,0.3-0.1c0.1-0.1,0-0.2,0-0.3c-0.2-0.1-0.3-0.1-0.3,0.1
	C76.7,10.4,76.9,10.4,76.8,10.5z M81.4,1.2c0.8-0.5-0.6-1-0.3-0.1L81.4,1.2z M77.1,14c0,0.1-0.2,0.1-0.2,0.2
	C77,14.3,77.2,14,77.1,14z M79.7,18.7c0-0.1,0.3-0.2,0.1-0.3C79.9,18.6,79.6,18.6,79.7,18.7z M89.6,12.1c0.4,0,0.9,0.2,1.2,0.2
	C90.4,12.1,89.9,12,89.6,12.1z M77.2,13.7c0.2,0.2,0.8-0.2,0.8-0.2C77.8,13.6,77.5,13.6,77.2,13.7z M95.3,34.9
	c-0.3,0.3-0.7,0.3-0.9,0.7c0.3-0.1,0.6-0.4,0.9-0.5V34.9z M95.4,36.6c-0.6-0.5-1.4-0.3-1.5,0.5c0.1,0.2,0.2,0.3,0.2,0.5
	c0.3,0.2,0.5,0.3,0.8,0.3c0.2-0.3,0.4-0.2,0.7-0.4C95.5,37.3,95.5,36.9,95.4,36.6z M93.1,32.6c-0.1,0.1-0.1,0.2,0,0.3
	C93.1,32.8,93.2,32.6,93.1,32.6z M104,25c0.5,0,0.4-1,0.2-1.1c-0.2-0.1-0.5-0.1-0.6,0.1C103.3,24.3,103.7,24.8,104,25z M103.4,24.6
	c0,0.2,0,0.5,0.2,0.7C103.6,25.1,103.5,24.8,103.4,24.6z M95.8,37.4c0,0.1-0.2,0.1-0.1,0.2C95.8,37.5,96,37.5,95.8,37.4z
	 M103.2,37.8c-0.1,0.5,0.9,0.3,0.5-0.2C103.4,37.5,103.2,37.6,103.2,37.8z M102,38c0.1,0.1,0.2,0.1,0.3,0.1l0.1-0.2
	C102.2,37.7,102,37.7,102,38z M102.7,35.9c0.1,0.2,0.2,0.3,0.4,0.4C103.2,36.2,102.9,36.1,102.7,35.9z M103.2,32.6
	c0.3,0,0.7,0.2,0.9,0.1C103.9,32.6,103.5,32.5,103.2,32.6z M95.4,27.9c0,0.2,0.1,0.4,0.3,0.5C95.7,28.2,95.6,28.1,95.4,27.9z
	 M93.7,34c0,0.1-0.1,0-0.1,0.2C93.7,34.2,93.8,34,93.7,34z M93.7,31.3v-0.2c-0.1-0.1-0.2,0-0.2,0.1s0.1,0.1,0.1,0.2
	C93.6,31.3,93.5,31.3,93.7,31.3z"/>
<path d="M103.3,34.4c0.3-0.4-0.9-0.7-0.2-1.3L103,33c-0.2-0.1-0.4,0-0.6-0.1c0-0.1,0.1-0.1,0.1-0.2c-0.1,0-0.2,0-0.2-0.2
	c0.1-0.1,0.3,0.1,0.4-0.1c-0.4-0.1-0.9-0.2-0.7-0.7c0.6-0.1,1-0.5,1.6-0.6c0.3-0.1,0.6-0.1,0.7-0.4c-0.2-0.6-0.7,0-1.1-0.2
	c-0.5,0-0.8,0.4-1.2,0.4c0.1,0,0.1-0.2,0-0.3v-0.8h0.3c0-0.2,0.4-0.4,0.1-0.6c-0.1,0-0.1,0.2-0.3,0.2c0-0.5,0.3-0.9,0.4-1.4
	c-0.2-0.3-0.4-0.2-0.5,0v-0.4c0.2-0.1,0.4-0.5,0.6-0.7c0,0,0-0.1-0.1-0.1c-0.2,0.2-0.3,0.5-0.5,0.7V14.2c0-2,0-3.1,0.2-4.2H96
	c0.2,1.1,0.2,2.3,0.2,4.2V19h-5.9c0-0.1,0-0.3-0.1-0.4c-0.4-0.2-0.7,0-0.7,0.3v0.2h-1.1V19c-0.1-0.2-0.4-0.2-0.5,0.1h-1.4v-4.4
	c0.3,0.1,0.3,0.4,0.5,0.6c0.1,0,0.2,0,0.2-0.1c0.3,0.2,0.4,0.4,0.7,0.6c0-0.2-0.1-0.5-0.4-0.5c0.1,0,0.1,0.2,0,0.1s-0.6-0.4-0.3-0.5
	c0.2,0,0.1,0.4,0.3,0.3c-0.1-0.1-0.1-0.2-0.1-0.3c0.1-0.1,0.4,0,0.6,0.1c0.2-0.7,1.3,0.1,1.6-0.3c0.3-0.6-1.2-1-0.3-1.7
	c-0.1,0-0.1-0.1-0.1-0.2c-0.3-0.2-0.5,0-0.8-0.2c0-0.1,0.1-0.1,0.1-0.2c-0.2,0-0.3,0-0.3-0.2c0.1-0.1,0.4,0.1,0.5-0.1
	c-0.6-0.1-1.2-0.2-0.9-0.9c0.8-0.1,1.4-0.6,2.1-0.8c0.4-0.1,0.7-0.1,0.9-0.5c-0.2-0.7-0.9,0-1.5-0.3c-0.6,0-1,0.5-1.6,0.5
	c0.1-0.1,0.2-0.3,0-0.3s-0.1,0.4-0.2,0.3c-0.2-0.1,0-0.4,0-0.5c0-0.3-0.2-0.5,0.1-0.8H88c0-0.3,0.5-0.6,0.1-0.7
	c-0.1,0-0.2,0.3-0.3,0.2c0-0.7,0.4-1.2,0.5-1.9c-0.4-0.7-0.8,0.3-1.2,0.4l0.2-0.4C87,6.4,87,7.1,86.7,7c0-0.3,0.1-0.7-0.3-0.9
	c-0.3,0.3,0,0.7-0.1,1c0.5,0-0.3,0.5-0.6,0.2c-0.1-0.1,0-0.3-0.2-0.3c-0.2,0.3-0.2,1-0.7,0.6c-0.6-1.3-1-2.6-0.7-4.3
	c-0.3-0.4,0.5-2.1-0.2-2.4c-0.5-0.3-0.6,0.3-0.6,0.6c0,0.7-0.1,1.8,0,2.3c0.1,1.4,0.4,2.6-0.3,3.7c-0.5,0.5-1.2-0.2-1.5-0.6
	c-0.3-0.3-0.4-0.5-0.3-0.9c-0.4-0.7-0.5-1.7-1.2-2c0.1,1.3,1.2,2.1,1.6,3.3c-0.1,0.3-0.1,0.7-0.3,0.9c-0.3-0.3-0.6-0.5-0.8-0.8
	c0.1,0.4,0.6,0.7,0.8,1.1c-1.1,0.3-2.5-0.6-3.2-1.3c0-0.1,0.2,0.1,0.2,0c-0.2-0.2-0.4,0.1-0.7,0c0,0,0,0.1-0.1,0.1
	c0,0.8,1.5,1,1.8,1.6c-0.1,0-0.2-0.1-0.3-0.1c0,0.3-0.1,0.3,0,0.6c-0.6,0.1-1.1,0.5-1.7,0.6c0.1,0.1,0.4,0,0.4,0.2
	c-0.3,0.3-0.9,0.4-1.1,0.6c-0.4,0-0.9,0-1.3,0.1c0.7,0.1,1.8,0.1,2.4-0.2c0.2,0.2,0.5,0.1,0.5,0.4L78,10.9c-0.1,0.1,0,0.2-0.1,0.2
	c-0.3-0.1-0.2,0.2-0.3-0.1c-0.2,0.2,0.3,0.4,0.4,0.6c-0.2,0-0.4-0.1-0.5,0.1c0.4,0.1,1.2,0.1,1.8,0.1c0.4,0,1,0,0.9,0.5
	c-0.1,0.4-0.5,0.2-0.7,0.5c0.1,0.2,0.4-0.2,0.5,0c-0.3,0.5-0.9,0.8-1.4,0.9c-0.7,0.2-1.6,0.4-1.8,1.2c-0.3-0.6-0.6-1.2-1.1-1.8
	c-0.3-0.4-0.6-0.8-1-1.1c0.5,0.2,1.1,0.3,1.7,0.3c0.1-0.5-0.1-0.8-0.5-1.1c-0.2-0.2-0.4-0.2-0.6-0.4c-0.2-0.1-0.3-0.3-0.5-0.3
	c-0.4-0.1-0.6-0.2-0.9-0.2c-0.3-0.3-1.1-0.2-1.5-0.3c0,0,0-0.1-0.1-0.1c-0.4-0.1-0.9,0-1.4,0c-1.2-0.4-2.4-0.5-3.8-0.5
	c-3.3,0-6.2,1.1-8.2,3c-0.4,0.4-0.7,0.7-1,1.2c-0.2,0.2-0.4,0.3-0.7,0.4v0.3c-0.3,0-0.1,0.4-0.4,0.4c-0.1-0.1,0.1-0.3,0-0.3
	c-0.1,0.2-0.3,0.3-0.4,0.6l0.3,0.6c-0.1,0.1-0.1,0.3-0.2,0.4c-0.1-0.1-0.1-0.3-0.2-0.5c-0.1,0-0.1,0.1-0.2,0c0-0.2,0.1-0.4,0.2-0.5
	c-0.1,0-0.1-0.1-0.1-0.1c-0.1,0.1-0.3,0.3-0.3,0.5c0.1,0.3,0.4,0.5,0.4,0.8h0.2c-0.7,1.7-1,3.6-1,5.7v0.5h-0.1c0.1,0,0.1,0.2,0,0.1
	c0,0.2,0.1,0.2,0.1,0.4c0,0.1-0.1,0-0.2,0.1c0.1,0.4-0.2,0.3-0.4,0.2c0,0.1,0,0.1-0.1,0.1c-0.2-0.2-0.6-0.3-0.9-0.4
	c-0.1,0.2,0.2,0.2,0.2,0.4c0.1,0.3,0,0.7-0.1,0.9c0.3,0.2,0.6,0.7,0.4,1.2c0.3,0.3,0.3,0.6,0.5,1c0.2,0.6,0.6,0.9,0.3,1.7
	c-0.4,0.3-0.9,0-1.2-0.3V28c0.3,0.3,0.4,0.8,0.8,1.1c0,0.2,0.2,0.3,0.2,0.5c0.2,0.1,0.3,0.2,0.2,0.4c0.7,0.5,1.1,1.4,1.9,1.7
	c0.3,0.6,1.2,0.7,1.8,1.1h0.2c0,0.1,0.1,0.1,0.1,0.2c0.3,0,0.4,0.1,0.6,0.2c0.8,0.3,2.1,0.3,2.8,0.4h0.6c1.2,0.4,2.6,0.5,4,0.5
	c3.5,0,6.2-1.1,8-3.1c0.3-0.4,0.6-0.7,0.8-1.1c0.1-0.1,0.2-0.1,0.3-0.1c0-0.1,0.1-0.1,0.1-0.2c0.2,0,0.4-0.2,0.4-0.4
	c-0.2,0-0.2,0.1-0.3,0.2c-0.1,0-0.1,0.1-0.2,0.1c0.6-1,0.9-2.1,1.3-3.7h-0.2c0.1-0.3,0.2-0.7,0.3-1.1h-0.1c-0.1,0.4-0.3,0.7-0.5,1.1
	l-1.3-0.2c0.1-0.1,0.1-0.2,0.2-0.2c0.3-0.2,0-0.4,0.1-0.6c-0.1,0-0.1,0-0.2-0.1c0,0.2-0.2,0-0.3,0.1V25c-0.2,0.1-0.2,0.3-0.2,0.5
	L72,25.3c-0.2,1.2-0.4,1.8-0.9,2.5c-0.8,1.1-2.2,1.8-3.7,1.8c-3.5,0-5.7-2.8-5.7-7.5s2-7.5,5.5-7.5c2.5,0,4,1.3,4.5,3.9l5.9-1.2
	c-0.2-0.7-0.3-1.3-0.5-1.8c0.2,0.1,0.3,0.2,0.5,0.2c0.4-0.3,1-0.5,1.5-0.8c0.4-0.2,0.7-0.7,1.1-0.5c-0.1,0.1-0.3,0.2-0.4,0.4
	c0.4,0.1,0.6-0.5,1-0.6v0.3c-0.2,0.1-0.4,0.2-0.5,0.4c0.2,0,0.4-0.1,0.5-0.3v3.6c0-0.1,0-0.3-0.1-0.4c0,0,0-0.1,0.1-0.1
	c-0.1,0-0.1-0.1-0.2-0.1c-0.4,0.2-0.4,0.9-0.7,1.2l-0.1,0.1c-0.1-0.2-0.4-0.3-0.5-0.1c-0.1,0.1,0,0.3,0.2,0.4
	c-0.1,0.2-0.2,0.3-0.3,0.5c0.2-0.1,0.4-0.3,0.5-0.4l0.1-0.1c0.2-0.3,0.5-0.7,0.7-1.1c0.1,0.1,0.1,0.3,0.1,0.5h0.2v0.1
	c-0.1,0.4-0.1,0.5,0,0.8h0.1v10c0,2,0,3.1-0.2,4.2h6.2c-0.2-1.3-0.2-2.4-0.2-4.2v-5.6h9.6v2.5c-0.1-0.1-0.2-0.1-0.3-0.2
	c0,0.3,0.1,0.6,0.3,0.9v2.4c-0.7-0.1-1.3-0.6-1.7-1c0-0.1,0.1,0.1,0.2,0c-0.2-0.2-0.3,0-0.5,0c0,0,0,0.1-0.1,0.1
	c0,0.6,1.1,0.7,1.4,1.2c-0.1,0-0.2-0.1-0.2,0c-0.1,0.2-0.1,0.3-0.1,0.5c-0.5,0.1-0.8,0.4-1.3,0.5c0,0.1,0.3,0,0.3,0.2
	c-0.2,0.2-0.7,0.3-0.8,0.5c-0.3,0-0.7,0-1,0.1c0.5,0.1,1.4,0.1,1.8-0.1c0.2,0.1,0.4,0.1,0.4,0.3c-0.1,0-0.1-0.1-0.2-0.1
	c-0.1,0.1,0,0.2-0.1,0.2c-0.2-0.1-0.2,0.1-0.2-0.1c-0.1,0.2,0.2,0.3,0.3,0.5c-0.1,0-0.3-0.1-0.4,0.1c0.3,0.1,0.9,0.1,1.4,0.1
	c0.2,0,0.5,0,0.6,0.1V33c-0.1,0.1-0.3,0.1-0.4,0.2c0.1,0.1,0.3-0.1,0.4,0c-0.2,0.4-0.6,0.6-1,0.7c-0.6,0.2-1.3,0.3-1.4,1
	c0.1,0.1,0.3,0.2,0.5,0.2c0.3-0.2,0.8-0.4,1.2-0.6c0.3-0.2,0.5-0.5,0.9-0.4c-0.1,0.1-0.2,0.1-0.3,0.3c0.3,0.1,0.6-0.5,0.9-0.5
	c0,0.3-0.4,0.3-0.6,0.6c0.4,0,0.5-0.5,0.9-0.5c0.1,0.3,0.2,0.5,0.3,0.8c-0.2,0.4-0.4,0.8-0.6,1.3c0.3-0.1,0.3-0.9,0.7-0.9
	c-0.1,0.3-0.2,0.6,0.1,0.7c0.2,0,0.3-0.3,0.4-0.5h0.5c0.1-0.1,0.3-0.4,0.5-0.3c0.1-0.2,0.1-0.3,0.2-0.3c0.3,0.1,0.3,0.4,0.4,0.7
	c0.4,0.4,0.5,0.9,0.7,1.3c0,0.3,0,0.6,0.2,0.8c0.1-0.6-0.1-1,0.2-1.4c0-0.1-0.2-0.1-0.3-0.2c0.1-0.5-0.2-1.6,0.4-1.5
	c0.4,0,0.3,0.3,0.6,0.5c0.1,0,0.1,0,0.2-0.1c0.2,0.1,0.3,0.3,0.6,0.4c0-0.1-0.1-0.4-0.3-0.4c0,0,0.1,0.1,0,0.1
	c-0.1-0.1-0.5-0.3-0.2-0.4c0.1,0,0.1,0.3,0.2,0.2c-0.1-0.1-0.1-0.1-0.1-0.2c0.1-0.1,0.3,0,0.4,0C102.3,34.1,103.1,34.8,103.3,34.4
	L103.3,34.4z M55.1,29.1c0.1-0.3,0.4-0.3,0.6-0.4c0.2-0.1,0.2-0.4,0.4-0.5c0.1,0,0.3-0.1,0.4-0.1c0.1,0.1,0.3,0.1,0.4,0.2
	c0.2,0.4,0.4,0.9,0.6,1.3C56.9,29.7,55.5,29.6,55.1,29.1z M78.2,11.9c0-0.2,0-0.4,0.3-0.5c0.2,0.3,0.7,0.1,0.9,0.3
	C79.1,12,78.6,11.8,78.2,11.9z M78.9,11c0.1-0.1,0.2-0.1,0.4,0C79.1,11,79,11.1,78.9,11z M79.9,10.9c-0.2,0.1-0.6,0-0.9,0v-0.3
	c0.3-0.1,0.9-0.3,1.1,0.1c-0.1,0.1-0.3,0.1-0.5,0.1C79.6,10.8,79.8,10.8,79.9,10.9z M79.9,10.2c-0.1-0.2-0.1-0.5-0.4-0.6
	c0.2-0.7,1.1-0.3,0.8,0.3c0,0.1,0.2,0.2,0.2,0.3C80.4,10.4,80,10.1,79.9,10.2z M94.6,32.4c0-0.1,0-0.3,0.2-0.4
	c0.1,0.3,0.5,0.1,0.7,0.2C95.3,32.5,94.9,32.3,94.6,32.4z M95.1,31.8c0.1-0.1,0.2-0.1,0.3,0H95.1z M95.8,31.7c-0.2,0.1-0.4,0-0.7,0
	v-0.3c0.2-0.1,0.7-0.2,0.8,0.1c-0.1,0.1-0.2,0.1-0.4,0.1C95.6,31.6,95.8,31.6,95.8,31.7z M95.8,31.1c-0.1-0.2-0.1-0.4-0.3-0.5
	c0.2-0.6,0.8-0.2,0.6,0.3v0.3C96.1,31.2,95.9,31.1,95.8,31.1z"/>
<path d="M93.9,33.8c0.2,0.1,0.6-0.2,0.6-0.2C94.2,33.7,94,33.7,93.9,33.8z M95.4,34.9c0.1,0,0.2-0.1,0.3-0.2
	C95.5,34.7,95.5,34.9,95.4,34.9z M98.2,38.5c0.1,0,0.1,0.1,0.2,0.1s0.2-0.1,0.2-0.3C98.5,38.2,98.1,38.2,98.2,38.5z M96.4,36.8
	c-0.3,0.1-0.3,0.7-0.5,0.9c-0.1,0.1-0.2,0.1-0.3,0.2c-0.1,0.2-0.2,0.4-0.3,0.5C95.8,38.1,96.1,37.4,96.4,36.8
	C96.5,36.9,96.5,36.8,96.4,36.8z M102,37.1C102,37.1,102,37,102,37.1L102,37.1L102,37.1z M104.1,39.3c0,0.1,0,0.2,0.2,0.2
	c0.1,0,0.2-0.1,0.2-0.2C104.4,39.1,104.2,39.1,104.1,39.3z M95.8,28.4c0,0.2,0.4,0.5,0.4,0.5C96.1,28.8,96,28.6,95.8,28.4z
	 M100.4,38.1c-0.1,0.1,0,0.2,0.1,0.2c0,0,0.1-0.1,0.1-0.2C100.5,38.1,100.5,38.2,100.4,38.1z M51.7,4.9c0.1-0.2-0.2-0.3-0.2-0.1
	C51.6,4.8,51.6,4.9,51.7,4.9z M55.1,6.8c0.2,0.1,0.4,0.1,0.5-0.1C55.5,6.6,55.2,6.6,55.1,6.8C55.2,6.8,55.2,6.8,55.1,6.8z
	 M44.4,14.5c0.1,0,0.2,0.1,0.2,0.2s-0.1,0.1-0.1,0.2c0.1,0,0.2-0.1,0.4,0c0.1,0.1,0.1,0.2,0.3,0.3c0-0.1,0.1-0.1,0.2-0.1
	c0.1,0.1,0,0.2,0.1,0.2s0.1-0.3,0.2-0.2c0.1,0,0,0.1,0.1,0.2c0.1-0.1,0.1-0.1,0.1-0.2c0.2,0,0.1,0.2,0.2,0.2c0-0.1-0.1-0.1,0-0.2
	c0.2-0.1,0.1-0.4,0.3-0.5c0.1,0,0.4,0.2,0.6,0.2c-0.5,0-0.7-0.6-0.3-0.8h-0.2c-0.1-0.1-0.1-0.2-0.1-0.3h-0.2
	c-0.1-0.1-0.1-0.1-0.1-0.2c-0.2,0-0.2-0.2-0.3-0.3c-0.1,0-0.1,0.1-0.2,0.1c-0.2-0.2-0.3,0.1-0.5-0.1c-0.2,0.2-0.4,0.3-0.7,0.2
	c-0.1,0.1,0.1,0.2,0.1,0.3c0,0.2-0.2,0.2-0.2,0.3v0.6C44.4,14.4,44.4,14.5,44.4,14.5z M43,14.6c0.3,0.2,0.4-0.2,0.5-0.3v-0.1
	c-0.1-0.1-0.2,0-0.2,0c0-0.2-0.3-0.1-0.3,0C42.9,14.3,43.1,14.4,43,14.6z M47.7,7.8c-0.1-0.1-0.2-0.2-0.3-0.2
	C47.4,7.7,47.6,7.8,47.7,7.8z M55.6,12.8c0,0.1,0.2,0.1,0.3,0C55.9,12.7,55.7,12.7,55.6,12.8z M51.1,6.1c0.1,0.1,0.2,0.1,0.1,0.2
	c0.1,0,0.2,0.1,0.3,0.2c0.2,0,0.3,0.1,0.4,0.2c0.1-0.2,0.3-0.2,0.5-0.2c0-0.1,0.1-0.2,0.2-0.2c0.1-0.2,0-0.4,0.1-0.5
	c-0.2-0.1-0.2-0.4-0.3-0.5c0,0-0.1,0.1-0.1,0c-0.1,0,0-0.1-0.1-0.1c-0.1,0.1-0.2,0.1-0.3,0c-0.1,0.1-0.3,0.2-0.5,0.2
	c0.1,0.1-0.1,0.3-0.2,0.3C51.1,5.9,51.2,5.9,51.1,6.1z M55.6,8.1v0.1c0,0.1-0.1,0-0.2,0.1c0.1,0.1,0.1,0.3,0,0.4
	c0.1,0.1,0.1,0.3,0.2,0.4c-0.2,0-0.4,0-0.5,0.3c0.4,0.4,0.7-0.4,1.2-0.1c0.2-0.2,0.5-0.3,0.5-0.7c0,0,0.1,0,0.2-0.1
	c0,0-0.2,0-0.2-0.1s0.1-0.1,0.1-0.2c-0.1,0-0.1-0.2-0.3-0.3c-0.1-0.1-0.3-0.1-0.3-0.2c-0.1,0.1-0.2,0.1-0.3,0
	C55.9,7.9,55.7,7.8,55.6,8.1C55.6,8,55.6,8,55.6,8.1z"/>
<path d="M54.5,10.8c0.1-0.1,0.2,0,0.3,0.1c0.2-0.1,0.6-0.2,0.6-0.6c0-0.1,0.1-0.1,0.2-0.2c-0.1-0.2,0-0.6-0.3-0.7V9.2
	c-0.1-0.1-0.1-0.1-0.2,0C55,9.1,55,9.1,54.9,9.1c-0.1,0.1-0.2,0.1-0.3,0c-0.1,0.2-0.4,0.2-0.5,0.5c0,0.1,0,0.4-0.1,0.5
	c-0.2-0.6-1.2-0.5-1.6-0.8c0.1-0.2,0.3-0.4,0.4-0.5c0.1,0,0.2-0.1,0.2-0.2c-0.3,0-0.5,0.5-0.8,0.5c-0.1-0.2-0.2-0.4-0.3-0.6
	c0.1-0.4,0-0.6,0-1c0-0.1,0-0.2-0.1-0.4h-0.1c-0.1,0.1,0,0.2-0.1,0.4c-0.3,0-0.6-0.4-0.8-0.6c-0.1,0.1,0,0.2-0.1,0.4
	c-0.3,0-0.4-0.2-0.6-0.2C50,7,50,6.7,49.8,6.6c-0.1-0.2,0-0.5-0.2-0.7c-0.1,0.1,0,0.2,0,0.4c0,0.1,0,0.5,0.1,0.6
	c0.1,0.2,0.2,0.2,0.1,0.5c-0.1,0.2-0.3,0.1-0.5,0.1c-0.4,0.7-1,0.1-1.4-0.2c0.2,0.4,0.6,0.6,0.8,0.8l-0.6,0.4
	c-0.1,0-0.1-0.1-0.2-0.2c-0.1,0.1,0,0.2,0.1,0.2c-0.4,0-0.4-0.5-0.8-0.6V7.7c0-0.1,0.1-0.1,0.1-0.1c-0.1-0.1-0.1-0.2,0-0.5
	c-0.2,0-0.3-0.2-0.3-0.5c-0.1-0.1-0.1,0.1-0.2,0c0-0.2-0.1-0.1-0.3-0.4l-0.1,0.1c-0.2-0.1-0.3,0-0.4,0C45.9,6.3,45.8,6,45.6,6
	c0,0.1,0.2,0.1,0.2,0.2c-0.2,0.2-0.3,0.5-0.5,0.6c0.1,0.1,0.1,0.2,0,0.5c0.1,0.2,0.2,0.5,0.2,0.6h0.2C45.8,8,45.8,8,45.8,8.3
	c0.3,0,0.5,0.1,0.7,0.1l0.1-0.1h0.2c0.1,0,0-0.1,0.1-0.1c0.3,0.2,0.8,0.4,0.9,0.7c0,0.4-0.1,0.6-0.3,0.8c0,0-0.1-0.1-0.2-0.1
	s0-0.1-0.1-0.2c-0.4-0.1-0.8,0-1,0.4c0,0.1,0,0.4-0.1,0.5c0,0.4,0.2,0.5,0.3,0.8c0.1-0.1,0.2,0,0.3,0.1h0.1c0.1,1,0.1,2,0.1,3.8v0.2
	h-0.1h0.1v8.6c0,3.4-1.7,6.2-5.2,6.2c-3.3,0-4.9-2.9-4.9-6.1V15c0-2.5,0-3.9,0.2-5.1h-6.2C31,11,31,12.6,31,14.7h-0.1v0.1h-0.1
	c0,0,0.1,0,0,0.1c0.1,0.1,0,0.2,0,0.2v0.5c0,0.1,0.1,0.1,0.1,0.1v0.1c0,0.1,0.1,0.1,0.1,0.2l0.1,0.1v5.1H31v0.1h-0.1v0.1l-0.1,0.1
	h-0.2c0,0,0,0.1-0.1,0.1c0,0-0.1,0,0,0c0,0-0.1,0,0,0V22h0.2c-0.1,0-0.1,0.1-0.1,0.1v0.1c0.1,0,0.1,0.1,0.1,0.1v0.7
	c0,0,0.1,0.1,0,0.1v0.2h0.1v0.1c0,0,0,0.1,0,0c0,0-0.1,0,0,0v0.4L30.7,24v0.5c0,0.1,0,0.1,0.1,0.1v0.1c0,0.1,0.1,0.1,0.1,0.1h-0.1
	l0.1,0.1h-0.1c0,0.1,0.1,0.1,0.1,0.2c0.1,0,0.1,0.1,0.1,0.1v0.1c0,0,0,0.1,0.1,0.1h0.1v0.1c0,0.1,0,0.1-0.1,0.1H31c0,0,0.1,0,0,0
	c0,0,0,0.1,0.1,0.1L31,26c0.1,0,0.1,0.1,0,0.2v0.1c0,0.1,0.1,0.1,0.1,0.2c0,0.1,0,0.1-0.1,0.2h-0.1v0.2H31v0.1h0.1H31h0.1v0.1h0.1
	c0,0-0.1,0,0,0v0.1c0,0.1,0.1,0.1,0,0.2v0.1h0.1c0.1,0,0,0.1,0.1,0.1v0.1h-0.2c0,0-0.1,0,0,0.1c0.1,0,0,0.1,0,0.1v0.2h0.1
	c0.1,0,0.1,0.2,0.2,0.2h0.2h-0.1v0.1c0,0,0.1,0,0,0.1v0.1h-0.1v0.1h0.1l0.1,0.1c0,0,0,0.1,0.1,0.1c0,0,0.1,0,0,0.1
	c0.1,0,0.2,0.1,0.3,0.1V30c0,0,0,0.1,0.1,0.1h-0.1c0,0.1,0.2,0.2,0.3,0.2c0,0,0,0.1,0.1,0v0.1c0,0,0.1,0.1,0,0.1l0.1,0.1
	c0,0,0.1,0,0.2,0.1v0.1c0,0.1,0.1,0.1,0.1,0.2c0,0,0.1,0,0.1,0.1h0.1c0,0.1-0.1,0.1,0,0.2c0,0,0.1,0,0.1,0.1c0.1,0.1,0,0.2-0.1,0.2
	c0,0.1,0.2,0.1,0.1,0.2v0.1c0,0,0.1,0,0.1,0.1H34c1.7,1.9,4.5,3,7.8,3c6.9,0,10.8-4.4,10.8-12.2V9.6c0.2,0.2,0.4,0.5,0.8,0.5
	c0.4-0.7-0.8-1-0.7-1.5c0.1-0.4,0.3-0.1,0.5-0.1c0-0.2-0.3-0.2-0.3-0.4c0.1-0.2,0.2-0.1,0.4-0.2c0-0.2,0.2-0.2,0.4-0.4
	c0-0.1-0.2-0.2-0.2-0.4C53.7,7,54,6.6,54.2,7C54.4,10.4,54.4,10.5,54.5,10.8z M31,13.5C31,13.5,31.1,13.5,31,13.5z M31.1,19.9
	C31.1,19.8,31,19.8,31.1,19.9C31.1,19.8,31.1,19.8,31.1,19.9C31.1,19.8,31.1,19.9,31.1,19.9z M31.1,25.5
	C31.2,25.5,31.2,25.5,31.1,25.5C31.2,25.5,31.1,25.5,31.1,25.5z M31.1,25.9C31.1,25.8,31.1,25.8,31.1,25.9
	C31.2,25.9,31.2,25.8,31.1,25.9C31.2,25.8,31.2,25.8,31.1,25.9z M31.3,27.5C31.2,27.4,31.2,27.4,31.3,27.5
	C31.2,27.4,31.2,27.4,31.3,27.5C31.2,27.4,31.3,27.4,31.3,27.5C31.3,27.4,31.3,27.4,31.3,27.5z M31.3,27.5
	C31.3,27.6,31.3,27.5,31.3,27.5z M31.4,27.6C31.4,27.6,31.3,27.6,31.4,27.6z M31.5,27.8C31.4,27.8,31.5,27.7,31.5,27.8
	C31.5,27.7,31.5,27.7,31.5,27.8z M31.5,27.9C31.5,27.8,31.5,27.8,31.5,27.9C31.5,27.8,31.5,27.9,31.5,27.9
	C31.5,27.8,31.5,27.8,31.5,27.9z M112.6,7.3c0.2,0,0.2-0.1,0.3-0.2c0.1-0.1,0.5-0.1,0.4-0.3s-0.7-0.3-1.2-0.4c-0.7,0-1,0.2-1.7,0.1
	c-0.2,0.1-0.6,0-0.7,0.1c0,0,0.1,0,0,0.1s-0.5,0-0.7,0c-0.5,0-0.7,0.1-1.1,0.1c-0.1,0.1,0,0.1-0.1,0.2c-0.2,0.2-0.7,0.3-1.1,0.4
	c-0.1,0.3-0.6,0.4-0.9,0.5c0,0,0.1,0,0,0.1c-0.1,0-0.2,0-0.2,0.1c-0.3,0-0.3,0.1-0.3,0.2c-0.3,0.1-0.2,0.3-0.3,0.4
	c0.2,0.1,0.3,0.2,0.2,0.3c0.1,0.1,0.3,0.2,0.4,0.3c0.2,1.1,0.2,2,0.2,4v15.3c0,1.9,0,3.1-0.2,4.2h2.6c0.1,0,0.2,0.1,0.2,0.1h-0.1
	c0.2,0,0.2,0.1,0.3,0.1h0.8c0.1,0,0.1,0.1,0.3,0.1c0.1,0,0.1-0.1,0-0.1h0.2l0.1,0.1c0.1-0.1,0.2-0.1,0.4-0.1c0.1,0,0.1,0.1,0.2,0.1
	s-0.2-0.1-0.1-0.1h0.1c0.2,0,0,0.1,0.2,0.1s0-0.1,0-0.1c0.1,0,0.1-0.1,0.1-0.1h1c-0.1-1-0.2-1.9-0.2-3.2c0-0.1,0.1-0.1,0.1-0.2
	s-0.1-0.2-0.1-0.3v-8c0-0.1,0.1-0.2,0.1-0.3c0.1-0.5,0.1-0.9,0-1.4c0.1-0.2-0.1-0.5,0.1-0.8c-0.2-0.2,0-0.6,0.1-0.8
	c0.1-0.2,0.3-0.5,0.1-0.7c0,0,0.2,0,0.2-0.1c-0.1-0.2,0-0.3,0.1-0.4c0.2-0.5,0-1,0.2-1.4c-0.2-0.3-0.6-0.6-0.5-0.9
	c0.2-0.3-0.1-0.7-0.1-1.1c-0.1-0.4,0.3-0.8,0-1.1c0,0,0.1,0,0.1-0.1c0-0.5-0.4-0.9,0.3-1.2c0.3-0.1,0.6-0.1,1-0.1
	c0.9,0,1.5,0.2,2.2,0.3c0.2,0.1,0.4,0.1,0.6,0.2h0.1c0.2-0.3-0.8-0.3-1.3-0.5c-0.4-0.2-0.4-0.4-0.6-0.7c0.2,0,0.2-0.1,0.3-0.1h0.2
	c0.2,0,0.4-0.1,0.7-0.1c0.2,0,0.5,0,0.6-0.1c0.1,0,0.1-0.1,0.2-0.1c0.2,0,0.4-0.1,0.5-0.1c0.6-0.2,1-0.6,1-1
	C117.8,7.5,114.6,7.2,112.6,7.3L112.6,7.3z M109.1,7.9c0.1,0,0.1-0.1,0.3-0.1C109.3,7.9,109.3,8,109.1,7.9z M108.9,7.6
	c0.4,0,0.7-0.1,1.2-0.1c-0.6,0.2-1.6,0.3-1.6,0.8c-0.1,0-0.2,0.1-0.3,0.1c-0.2,0-0.2-0.1-0.4-0.1C107.8,7.9,108.6,7.8,108.9,7.6z
	 M113.1,8.7h-0.2C112.9,8.6,113.1,8.6,113.1,8.7c-0.1-0.1-0.4-0.1-0.4,0c-0.1,0-0.3,0-0.3-0.1c-0.1,0.1-0.3,0-0.5,0
	c0-0.3,1-0.2,1.5-0.1C113.5,8.6,113.2,8.6,113.1,8.7z M116.5,9.1c-0.5,0.1-1.2,0.2-1.8,0c0.3-0.2,0.6-0.4,0.6-0.7
	c-0.1-0.2-0.4-0.4-0.8-0.6c-0.3,0-0.5-0.1-0.8-0.2c-0.4-0.1-0.8,0-1.2-0.1l0.1-0.1c1.6-0.1,4.6,0.1,5,0.8
	C117.8,8.6,117.1,8.9,116.5,9.1z"/>
<path d="M113.3,17.6c0.2,0,0.3-0.1,0.2-0.1C113.1,17.3,113.1,17.5,113.3,17.6z M75.8,23.1c0-0.1,0.1-0.1,0.1-0.2
	C75.7,22.8,75.8,23,75.8,23.1z M77,21.2c0-0.3-0.1-0.6-0.2-0.9c-0.1,0.1-0.1,0.2-0.1,0.4c-0.4,0.2-0.2,0.8-0.2,1h0.2v0.2
	c0.1-0.2,0.1,0,0.2,0C77.1,21.8,76.7,21.5,77,21.2z M71.6,20.6c-0.2,0.2-0.2,0.7,0.2,0.6C72.2,21.1,72,20.4,71.6,20.6z M75.7,20.6
	c-0.3,0-0.2,0.4-0.1,0.5h0.1c0-0.1,0.1-0.1,0.1-0.2s-0.2,0-0.1-0.1C75.7,20.8,75.8,20.8,75.7,20.6z M75.9,21.2c0-0.1,0.1,0,0.1-0.2
	L75.9,21.2z M76.2,22.3c0.2,0,0.3,0,0.4-0.2c-0.1,0-0.1-0.1-0.2-0.1C76.3,22.1,76.2,22.1,76.2,22.3z M75.6,22.8
	c0,0.1-0.1,0.1-0.1,0.2c0.1,0,0.1,0.1,0.1,0.1C75.6,23,75.7,22.9,75.6,22.8z M76.1,20.9v-0.1c0,0-0.1-0.1-0.2-0.1v0.2H76.1z
	 M56.5,15.6c0-0.1,0.1-0.3,0.1-0.3C56.5,15.4,56.4,15.4,56.5,15.6z M76.6,19c-0.3,0-0.3-0.3-0.4-0.4c-0.1,0.6,0.1,0.9,0.2,1.4
	c0.1,0.1,0.2,0,0.3,0C76.9,19.6,76.6,19.4,76.6,19z M79.8,16.1c-0.1-0.1-0.1,0.1-0.1,0.1C79.7,16.3,79.8,16.3,79.8,16.1
	C79.8,16.2,79.7,16.2,79.8,16.1C79.7,16.2,79.8,16.2,79.8,16.1z M55,22.5c0-0.2,0.2,0.1,0.2-0.1c-0.1-0.1-0.3,0-0.4-0.1
	C54.8,22.4,54.9,22.5,55,22.5z M55.2,23c-0.1-0.1-0.2-0.1-0.2-0.2c0,0,0.2,0,0.1-0.1c-0.2,0-0.4-0.2-0.7-0.2c0,0.1,0,0.1,0.1,0.2
	c0.1,0,0.2-0.1,0.3,0L54.7,23c0.1,0,0.5-0.1,0.4,0.1C55.2,23.1,55.2,23,55.2,23z M79.9,16.6c0-0.1,0.1-0.2,0-0.3h-0.1
	C79.9,16.4,79.8,16.5,79.9,16.6z M55.2,22.1C55.3,21.8,55.1,22,55.2,22.1L55.2,22.1z M80.2,16.6c0,0.4-0.1,0.7,0.2,0.9
	c-0.1-0.2,0.1-0.2,0-0.4c0,0,0,0.1-0.1,0.1c0-0.2-0.1-0.3-0.1-0.4S80.3,16.6,80.2,16.6z M80.5,17.7c0,0,0.1-0.2,0-0.2
	C80.5,17.6,80.4,17.7,80.5,17.7z M75,22.6c-0.2-0.2,0-0.3,0.1-0.6C74.6,21.8,74.7,22.7,75,22.6z M79,27.3c0,0.1-0.1,0.2-0.1,0.2
	c0.1,0,0.1-0.1,0.2-0.1C79,27.5,79.1,27.3,79,27.3z M79.4,15.6c0.1-0.1,0-0.3-0.1-0.4C79.1,15.4,79.1,15.7,79.4,15.6z M78.2,24
	c0,0.2-0.4,0.6-0.1,0.9C78.3,24.6,78.4,24.2,78.2,24z M78.3,28.4c0.2,0,0.5-0.3,0.4-0.5C78.5,28,78.3,28.1,78.3,28.4z M80,25.1
	c-0.1,0.1,0,0.2,0,0.3C80.2,25.4,80.3,25.1,80,25.1z"/>
<path d="M76.8,24.1c0.1-0.6,0.3-1.2,0.1-1.8c-0.1,0,0,0.2-0.1,0.1s0-0.1,0-0.2c-0.1,0-0.1-0.1-0.2-0.1c0.1,0.1,0,0.5-0.2,0.4
	c0,0.2-0.1,0-0.1,0.2c0-0.1-0.2-0.1,0-0.3H76c0-0.1,0-0.1-0.1,0c0.1-0.1,0-0.1,0.1-0.2c0.1,0,0.1,0.1,0.2,0.1v-0.4
	c0.5,0,0.1-0.8,0-0.2c-0.2,0-0.2,0.2-0.3,0.2c0,0.2-0.3,0.5-0.5,0.4c0,0.2-0.1,0.4,0.1,0.5c0.1-0.2,0.3,0,0.3,0.1
	c0-0.1,0.1-0.1,0.1-0.1c0-0.1-0.2,0-0.2-0.1c0.1,0.1,0.1-0.1,0.2-0.1s0,0.1,0,0.1c0.1,0,0.1-0.1,0.2-0.1c0,0.2,0.2,0.3,0.3,0.4
	c0-0.1-0.1-0.1-0.1-0.3h0.2c0,0.2-0.1,0.3-0.1,0.5c0.1,0.1,0.1,0.2,0.2,0.2c0,0,0,0.3-0.1,0.2v0.1c-0.2,0.1-0.5,0-0.3-0.1
	c0.2,0,0.2-0.3,0.1-0.4c-0.5-0.2-0.6,1.1-1,0.6c0,0.1-0.1,0-0.1,0l0.1,0.1c-0.1-0.1,0,0.1-0.1,0c0-0.1,0.1,0,0.1-0.1
	c-0.1,0-0.1-0.1-0.2-0.1c0,0.1,0,0.1-0.1,0c0,0.2-0.2,0.2-0.3,0.2V24c0.1,0,0.2-0.1,0.3,0c0-0.1,0.2-0.1,0.2-0.1
	c-0.1,0.3-0.5,0-0.6,0.3c0-0.1-0.1,0-0.1-0.1c-0.1,0.2-0.4,0.5-0.2,0.7c0.1-0.1,0.3-0.2,0.4-0.2v-0.1c0.2-0.1,0.6-0.1,0.6-0.1
	c-0.1,0.1-0.2,0.3,0,0.3c0-0.1,0.1-0.3,0.2-0.3c0,0.2-0.1,0.1-0.1,0.3h0.1c0-0.1,0.1-0.2,0-0.4c0.1,0,0.3-0.3,0.5-0.1
	c-0.2,0.1-0.1,0.3,0,0.3s0.1-0.1,0.2-0.1v0.1c0,0.1-0.1,0.1-0.1,0.2c0,0,0.1,0.1,0.2,0.1c0-0.2,0.4-0.1,0.6-0.2
	c-0.2-0.1-0.2-0.2-0.3-0.3c-0.1,0.1-0.3,0.2-0.4-0.2c0.1-0.1,0.2-0.3,0.4-0.3c0,0.2,0,0.2,0.1,0.4c0.2,0,0.1-0.1,0.4,0
	c0-0.1,0.1-0.2,0.1-0.3C76.7,24.2,76.8,24.1,76.8,24.1L76.8,24.1z M74.8,25.3H75v-0.1c-0.1,0-0.1-0.1-0.2-0.1
	C74.7,25.2,74.7,25.3,74.8,25.3z M53.3,21.6c0.1,0,0.1,0.1,0.1,0.1s0.1,0,0.1-0.1S53.3,21.5,53.3,21.6z M74.3,25.6
	c0.1-0.1,0-0.3-0.2-0.3C74.2,25.4,74.3,25.4,74.3,25.6z"/>
<path d="M74.9,23.1c-0.2-0.1-0.3,0.2-0.2,0.3c0.2-0.1,0.4-0.2,0.4-0.5c-0.1-0.1-0.2-0.1-0.3-0.1c0.1-0.2-0.1-0.2,0-0.2
	c-0.1,0,0-0.1-0.1-0.2c-0.1,0.1-0.1,0.1-0.2,0.1c0,0.1-0.2,0.2-0.2,0.4C74.5,22.8,74.8,22.9,74.9,23.1z M74.7,22.6v0.1
	c-0.1,0-0.1-0.1-0.1,0C74.5,22.7,74.7,22.7,74.7,22.6z M53.5,20.3c0,0.1-0.1,0-0.1,0.2c0.1,0,0.2,0.1,0.2,0
	C53.5,20.5,53.6,20.3,53.5,20.3z M76.6,24.7c0,0,0.1-0.1,0.1-0.2C76.5,24.5,76.5,24.7,76.6,24.7z M75.6,24.8c-0.1,0.2,0,0.2-0.1,0.3
	c0,0,0.1,0,0.1,0.1c-0.1,0-0.1,0.1-0.2,0.1c0,0.1,0.1,0.1,0.2,0.2c0-0.1,0.1,0,0.1-0.2c-0.1-0.1,0-0.2,0.1-0.3
	C75.6,25,75.8,24.8,75.6,24.8z"/>
<path d="M75.5,25c0-0.1-0.2-0.2-0.1-0.3h-0.2c0,0.2-0.1,0.2-0.1,0.3C75.3,25,75.5,25.1,75.5,25z M53.8,21.9V22H54
	C53.9,22,53.9,21.9,53.8,21.9z M31,20.9C30.9,20.9,31,21,31,20.9C31,21,31,20.9,31,20.9z M26.3,23c-0.8-0.7-1.6-1.1-3-1.4
	c1.2-0.4,1.7-0.7,2.3-1.3c1.1-1,1.7-2.4,1.6-4.1c0-3.1-1.8-5.1-4.9-5.8c0.2,0,0.5-0.1,0.8-0.1c0.1-0.5,0.2-0.7,0.6-0.9
	c-0.3-0.3-0.2-0.8,0.1-1.2c-0.2-0.1-0.2,0.1-0.4,0c-0.1-0.6-1.1-0.6-1.5-0.8c-0.2,0.3-0.5,0.5-0.9,0.5c0.1,0.3-0.1,0.6-0.4,0.8
	c0.3,0.3,0.1,0.7,0.2,1.1c0.2,0,0.4,0.2,0.5,0.3c-0.4,0-0.8-0.1-1.3-0.1c0.2-0.1,0.4-0.1,0.4-0.2c-0.1,0.1-0.5,0.1-0.5,0.2h-1.3
	c-0.2-0.4-0.3-0.9-1-1.1c-0.3,0-0.4,0.2-0.7-0.1c0.1-0.2,0.3-0.4,0-0.5c-0.3,0.4-0.6,1-1.2,0.9c-0.1,0.2-0.1,0.5-0.3,0.4
	c-0.3-0.3-0.8-0.6-1.1-0.9c-0.2,0.2-0.5,0.3-0.9,0.2c-0.3-0.3-0.1-0.8-0.5-0.9c-0.2,0-0.3,0-0.4,0.2c0,0.3,0.3,0.5,0.3,0.8
	c-0.4,0.1-0.5,0.7-1,0.7c-0.7-0.9-2-1.3-3-1.4c-0.3,1-1,0.3-1.4,0.7C7.2,8.7,7.1,7.6,6.8,8c0.3,0.2,0.5,0.9,0.3,1.2
	C7,9.6,6.7,9.5,6.5,9.8c-0.4,0.4-0.4,1-0.6,1.5c-0.1,0.1-0.3-0.1-0.4,0c-0.1,0.3,0.1,0.5,0,0.8c-0.3,0.2-0.7,0.5-1.1,0.6
	c0.1,0.2,0.2,0.4,0.2,0.7c-0.5,0.4-0.5,1.3-0.3,1.7C4.2,15.2,4,15.3,4,15.5c0.3,0.3,0.6,0.5,0.5,0.9c-0.1,0.2-0.4,0.1-0.3,0.4
	c0.4,0.1,1,0.4,0.5,1c0.4,0,0.9,0,0.9,0.5c-0.1,0.1-0.4,0.3-0.4,0.4c0.3-0.3,0.8,0,0.9,0.3c0.2,0,0.3-0.2,0.6-0.1
	c0.4,0.1,0.2,0.4,0.4,0.5c0.2,0.1,0.3-0.1,0.6,0c0.2,0.1,0,0.4,0.3,0.4c0.1-0.2,0.2-0.5,0.5-0.4v10.7c0,2,0,3-0.2,4.2
	c1.2-0.1,2.1-0.1,4.2-0.1h7.2c1,0.5,0.8,1,0.6,1.5c3.3-1.6,5.7-3.5,7.7-6.6c0.2-0.5,0.2-1,0.2-1.5C28.2,25.7,27.5,24.1,26.3,23z
	 M14.1,16.3h0.2c0.2-0.2,0.1-0.2,0.1-0.5c0.3,0,0.5,0.1,0.8,0.1c0.1-0.3,0.3-0.2,0.4-0.5c-0.2-0.3-0.7-0.3-1.1-0.3V15h4.6
	c1.6,0,2.5,0.8,2.5,2.2s-0.9,2.3-2.5,2.3h-5C14.1,19.5,14.1,16.3,14.1,16.3z M19.4,29.4h-5.3v-5.3h5.2c1.8,0,2.9,1,2.9,2.6
	C22.2,28.4,21.2,29.4,19.4,29.4z"/>
</svg>
